<?xml version="1.0" encoding="UTF-8" standalone="no"?>
<svg width="12px" height="12px" viewBox="0 0 12 12" version="1.1" xmlns="http://www.w3.org/2000/svg" xmlns:xlink="http://www.w3.org/1999/xlink" xmlns:sketch="http://www.bohemiancoding.com/sketch/ns">
    <!-- Generator: Sketch 3.4.4 (17249) - http://www.bohemiancoding.com/sketch -->
    <title>Untitled</title>
    <desc>Created with Sketch.</desc>
    <defs></defs>
    <g id="Page-1" stroke="none" stroke-width="1" fill="none" fill-rule="evenodd" sketch:type="MSPage">
        <path d="M0,0 L0,12 L12,12 L12,0 L0,0 L0,0 Z M3.18288,11.1996 L0.8112,11.1996 L0.8112,8.82888 L3.18288,8.82888 L3.18288,11.1996 L3.18288,11.1996 Z M3.18288,8.53992 L0.8112,8.53992 L0.8112,6.16896 L3.18288,6.16896 L3.18288,8.53992 L3.18288,8.53992 Z M3.18288,5.87964 L0.8112,5.87964 L0.8112,3.50928 L3.18288,3.50928 L3.18288,5.87964 L3.18288,5.87964 Z M5.85144,11.1996 L3.47964,11.1996 L3.47964,8.82888 L5.85144,8.82888 L5.85144,11.1996 L5.85144,11.1996 Z M5.85144,8.53992 L3.47964,8.53992 L3.47964,6.16896 L5.85144,6.16896 L5.85144,8.53992 L5.85144,8.53992 Z M5.85144,5.87964 L3.47964,5.87964 L3.47964,3.50928 L5.85144,3.50928 L5.85144,5.87964 L5.85144,5.87964 Z M8.51952,11.1996 L6.14856,11.1996 L6.14856,8.82888 L8.51952,8.82888 L8.51952,11.1996 L8.51952,11.1996 Z M8.51952,8.53992 L6.14856,8.53992 L6.14856,6.16896 L8.51952,6.16896 L8.51952,8.53992 L8.51952,8.53992 Z M8.51952,5.87964 L6.14856,5.87964 L6.14856,3.50928 L8.51952,3.50928 L8.51952,5.87964 L8.51952,5.87964 Z M11.18832,11.1996 L8.81676,11.1996 L8.81676,8.82888 L11.18844,8.82888 L11.18844,11.1996 L11.18832,11.1996 Z M11.18832,8.53992 L8.81676,8.53992 L8.81676,6.16896 L11.18844,6.16896 L11.18844,8.53992 L11.18832,8.53992 Z M11.18832,5.87964 L8.81676,5.87964 L8.81676,3.50928 L11.18844,3.50928 L11.18844,5.87964 L11.18832,5.87964 Z" id="Shape-Copy-5" fill="#A1A1A1" sketch:type="MSShapeGroup"></path>
    </g>
</svg>