<?xml version="1.0" encoding="UTF-8" standalone="no"?>
<svg width="6px" height="129px" viewBox="0 0 6 129" version="1.1" xmlns="http://www.w3.org/2000/svg" xmlns:xlink="http://www.w3.org/1999/xlink" xmlns:sketch="http://www.bohemiancoding.com/sketch/ns">
    <!-- Generator: Sketch 3.4.4 (17249) - http://www.bohemiancoding.com/sketch -->
    <title>Untitled</title>
    <desc>Created with Sketch.</desc>
    <defs></defs>
    <g id="Page-1" stroke="none" stroke-width="1" fill="none" fill-rule="evenodd" sketch:type="MSPage">
        <g id="Group" sketch:type="MSLayerGroup" fill="#CCCCCC">
            <rect id="Rectangle-269" sketch:type="MSShapeGroup" x="0" y="0" width="6" height="1"></rect>
            <rect id="Rectangle-269-Copy" sketch:type="MSShapeGroup" x="0" y="32" width="6" height="1"></rect>
            <rect id="Rectangle-269-Copy-8" sketch:type="MSShapeGroup" x="0" y="64" width="6" height="1"></rect>
            <rect id="Rectangle-269-Copy-9" sketch:type="MSShapeGroup" x="0" y="96" width="6" height="1"></rect>
            <rect id="Rectangle-269-Copy-10" sketch:type="MSShapeGroup" x="0" y="128" width="6" height="1"></rect>
            <rect id="Rectangle-269-Copy-2" sketch:type="MSShapeGroup" x="1" y="6" width="4" height="1"></rect>
            <rect id="Rectangle-269-Copy-11" sketch:type="MSShapeGroup" x="1" y="11" width="4" height="1"></rect>
            <rect id="Rectangle-269-Copy-13" sketch:type="MSShapeGroup" x="1" y="16" width="4" height="1"></rect>
            <rect id="Rectangle-269-Copy-12" sketch:type="MSShapeGroup" x="1" y="21" width="4" height="1"></rect>
            <rect id="Rectangle-269-Copy-14" sketch:type="MSShapeGroup" x="1" y="26" width="4" height="1"></rect>
            <rect id="Rectangle-269-Copy-19" sketch:type="MSShapeGroup" x="1" y="38" width="4" height="1"></rect>
            <rect id="Rectangle-269-Copy-15" sketch:type="MSShapeGroup" x="1" y="43" width="4" height="1"></rect>
            <rect id="Rectangle-269-Copy-16" sketch:type="MSShapeGroup" x="1" y="48" width="4" height="1"></rect>
            <rect id="Rectangle-269-Copy-17" sketch:type="MSShapeGroup" x="1" y="53" width="4" height="1"></rect>
            <rect id="Rectangle-269-Copy-18" sketch:type="MSShapeGroup" x="1" y="58" width="4" height="1"></rect>
            <rect id="Rectangle-269-Copy-24" sketch:type="MSShapeGroup" x="1" y="70" width="4" height="1"></rect>
            <rect id="Rectangle-269-Copy-20" sketch:type="MSShapeGroup" x="1" y="75" width="4" height="1"></rect>
            <rect id="Rectangle-269-Copy-21" sketch:type="MSShapeGroup" x="1" y="80" width="4" height="1"></rect>
            <rect id="Rectangle-269-Copy-22" sketch:type="MSShapeGroup" x="1" y="85" width="4" height="1"></rect>
            <rect id="Rectangle-269-Copy-23" sketch:type="MSShapeGroup" x="1" y="90" width="4" height="1"></rect>
            <rect id="Rectangle-269-Copy-29" sketch:type="MSShapeGroup" x="1" y="102" width="4" height="1"></rect>
            <rect id="Rectangle-269-Copy-25" sketch:type="MSShapeGroup" x="1" y="107" width="4" height="1"></rect>
            <rect id="Rectangle-269-Copy-26" sketch:type="MSShapeGroup" x="1" y="112" width="4" height="1"></rect>
            <rect id="Rectangle-269-Copy-27" sketch:type="MSShapeGroup" x="1" y="117" width="4" height="1"></rect>
            <rect id="Rectangle-269-Copy-28" sketch:type="MSShapeGroup" x="1" y="122" width="4" height="1"></rect>
        </g>
    </g>
</svg>