<?xml version="1.0" encoding="UTF-8" standalone="no"?>
<svg width="13px" height="14px" viewBox="0 0 13 14" version="1.1" xmlns="http://www.w3.org/2000/svg" xmlns:xlink="http://www.w3.org/1999/xlink" xmlns:sketch="http://www.bohemiancoding.com/sketch/ns">
    <!-- Generator: Sketch 3.5.1 (25234) - http://www.bohemiancoding.com/sketch -->
    <title>Untitled</title>
    <desc>Created with Sketch.</desc>
    <defs></defs>
    <g id="Page-1" stroke="none" stroke-width="1" fill="none" fill-rule="evenodd" sketch:type="MSPage">
        <g id="Servers-icon" sketch:type="MSLayerGroup" fill="#FFFFFF">
            <g id="noun_249512_cc" transform="translate(7.000000, 1.750000)" sketch:type="MSShapeGroup">
                <path d="M0.700016697,1.12255884e-16 C0.313442181,1.12255884e-16 0,0.313697222 0,0.700952778 L0,10.6740472 C0,11.0611764 0.313442181,11.375 0.700016697,11.375 L4.5499833,11.375 C4.93655782,11.375 5.25,11.0613028 5.25,10.6740472 L5.25,0.700952778 C5.25,0.313823611 4.93655782,0 4.5499833,0 L0.700016697,0 L0.700016697,1.12255884e-16 Z M3.0625,9.625 C2.82079234,9.625 2.625,9.42906522 2.625,9.1875 C2.625,8.94593478 2.82092278,8.75 3.0625,8.75 C3.30407722,8.75 3.5,8.94593478 3.5,9.1875 C3.5,9.42906522 3.30420766,9.625 3.0625,9.625 L3.0625,9.625 Z M4.18358757,6.489 L1.0662806,6.489 C0.960687382,6.489 0.875,6.40735278 0.875,6.307 C0.875,6.20639444 0.960687382,6.125 1.0662806,6.125 L4.18358757,6.125 C4.28931262,6.125 4.375,6.20652083 4.375,6.307 C4.375,6.40747917 4.28931262,6.489 4.18358757,6.489 L4.18358757,6.489 Z M4.18358757,5.61412639 L1.0662806,5.61412639 C0.960687382,5.61412639 0.875,5.53260556 0.875,5.432 C0.875,5.33152083 0.960687382,5.25 1.0662806,5.25 L4.18358757,5.25 C4.28931262,5.25 4.375,5.33164722 4.375,5.432 C4.375,5.53273194 4.28931262,5.61412639 4.18358757,5.61412639 L4.18358757,5.61412639 Z M4.18358757,4.739 L1.0662806,4.739 C0.960687382,4.739 0.875,4.65747917 0.875,4.55712639 C0.875,4.45639444 0.960687382,4.375 1.0662806,4.375 L4.18358757,4.375 C4.28931262,4.375 4.375,4.45652083 4.375,4.55712639 C4.375,4.65760556 4.28931262,4.739 4.18358757,4.739 L4.18358757,4.739 Z" id="Shape"></path>
            </g>
            <path d="M0.816686146,1.38161088e-16 C0.365682545,1.38161088e-16 0,0.386088889 0,0.862711111 L0,13.1372889 C0,13.6137556 0.365682545,14 0.816686146,14 L5.30831385,14 C5.75931746,14 6.125,13.6139111 6.125,13.1372889 L6.125,0.862711111 C6.125,0.386244444 5.75931746,0 5.30831385,0 L0.816686146,0 L0.816686146,1.38161088e-16 Z M3.57291667,11.8461538 C3.29092439,11.8461538 3.0625,11.6050034 3.0625,11.3076923 C3.0625,11.0103813 3.29107658,10.7692308 3.57291667,10.7692308 C3.85475676,10.7692308 4.08333333,11.0103813 4.08333333,11.3076923 C4.08333333,11.6050034 3.85490894,11.8461538 3.57291667,11.8461538 L3.57291667,11.8461538 Z M4.88085217,7.98646154 L1.24399404,7.98646154 C1.12080195,7.98646154 1.02083333,7.88597265 1.02083333,7.76246154 C1.02083333,7.63863932 1.12080195,7.53846154 1.24399404,7.53846154 L4.88085217,7.53846154 C5.00419805,7.53846154 5.10416667,7.63879487 5.10416667,7.76246154 C5.10416667,7.88612821 5.00419805,7.98646154 4.88085217,7.98646154 L4.88085217,7.98646154 Z M4.88085217,6.90969402 L1.24399404,6.90969402 C1.12080195,6.90969402 1.02083333,6.80936068 1.02083333,6.68553846 C1.02083333,6.56187179 1.12080195,6.46153846 1.24399404,6.46153846 L4.88085217,6.46153846 C5.00419805,6.46153846 5.10416667,6.56202735 5.10416667,6.68553846 C5.10416667,6.80951624 5.00419805,6.90969402 4.88085217,6.90969402 L4.88085217,6.90969402 Z M4.88085217,5.83261538 L1.24399404,5.83261538 C1.12080195,5.83261538 1.02083333,5.73228205 1.02083333,5.60877094 C1.02083333,5.48479316 1.12080195,5.38461538 1.24399404,5.38461538 L4.88085217,5.38461538 C5.00419805,5.38461538 5.10416667,5.48494872 5.10416667,5.60877094 C5.10416667,5.73243761 5.00419805,5.83261538 4.88085217,5.83261538 L4.88085217,5.83261538 Z" id="Shape" sketch:type="MSShapeGroup" transform="translate(3.062500, 7.000000) scale(-1, 1) translate(-3.062500, -7.000000) "></path>
        </g>
    </g>
</svg>