<?xml version="1.0" encoding="UTF-8" standalone="no"?>
<svg width="13px" height="13px" viewBox="0 0 13 13" version="1.1" xmlns="http://www.w3.org/2000/svg" xmlns:xlink="http://www.w3.org/1999/xlink" xmlns:sketch="http://www.bohemiancoding.com/sketch/ns">
    <!-- Generator: Sketch 3.5.1 (25234) - http://www.bohemiancoding.com/sketch -->
    <title>Untitled</title>
    <desc>Created with Sketch.</desc>
    <defs></defs>
    <g id="Page-1" stroke="none" stroke-width="1" fill="none" fill-rule="evenodd" sketch:type="MSPage">
        <g id="ic_archive_black_24px" sketch:type="MSLayerGroup" fill="#BABABA">
            <path d="M12.4433333,2.23666667 L11.5166667,1.11666667 C11.3366667,0.89 11.0633333,0.75 10.75,0.75 L2.75,0.75 C2.43666667,0.75 2.16333333,0.89 1.97666667,1.11666667 L1.05666667,2.23666667 C0.863333333,2.46333333 0.75,2.76333333 0.75,3.08333333 L0.75,11.4166667 C0.75,12.15 1.35,12.75 2.08333333,12.75 L11.4166667,12.75 C12.15,12.75 12.75,12.15 12.75,11.4166667 L12.75,3.08333333 C12.75,2.76333333 12.6366667,2.46333333 12.4433333,2.23666667 L12.4433333,2.23666667 Z M6.75,10.4166667 L3.08333333,6.75 L5.41666667,6.75 L5.41666667,5.41666667 L8.08333333,5.41666667 L8.08333333,6.75 L10.4166667,6.75 L6.75,10.4166667 L6.75,10.4166667 Z M2.16333333,2.08333333 L2.70333333,1.41666667 L10.7033333,1.41666667 L11.33,2.08333333 L2.16333333,2.08333333 L2.16333333,2.08333333 Z" id="Shape" sketch:type="MSShapeGroup"></path>
        </g>
    </g>
</svg>