<?xml version="1.0" encoding="UTF-8" standalone="no"?>
<svg width="16px" height="10px" viewBox="0 0 16 10" version="1.1" xmlns="http://www.w3.org/2000/svg" xmlns:xlink="http://www.w3.org/1999/xlink" xmlns:sketch="http://www.bohemiancoding.com/sketch/ns">
    <!-- Generator: Sketch 3.5.1 (25234) - http://www.bohemiancoding.com/sketch -->
    <title>Untitled</title>
    <desc>Created with Sketch.</desc>
    <defs></defs>
    <g id="Page-1" stroke="none" stroke-width="1" fill="none" fill-rule="evenodd" sketch:type="MSPage">
        <path d="M10.7142857,4.28571429 C11.9,4.28571429 12.85,3.32857143 12.85,2.14285714 C12.85,0.957142857 11.9,0 10.7142857,0 C9.52857143,0 8.57142857,0.957142857 8.57142857,2.14285714 C8.57142857,3.32857143 9.52857143,4.28571429 10.7142857,4.28571429 L10.7142857,4.28571429 Z M5,4.28571429 C6.18571429,4.28571429 7.13571429,3.32857143 7.13571429,2.14285714 C7.13571429,0.957142857 6.18571429,0 5,0 C3.81428571,0 2.85714286,0.957142857 2.85714286,2.14285714 C2.85714286,3.32857143 3.81428571,4.28571429 5,4.28571429 L5,4.28571429 Z M5,5.71428571 C3.33571429,5.71428571 0,6.55 0,8.21428571 L0,10 L10,10 L10,8.21428571 C10,6.55 6.66428571,5.71428571 5,5.71428571 L5,5.71428571 Z M10.7142857,5.71428571 C10.5071429,5.71428571 10.2714286,5.72857143 10.0214286,5.75 C10.85,6.35 11.4285714,7.15714286 11.4285714,8.21428571 L11.4285714,10 L15.7142857,10 L15.7142857,8.21428571 C15.7142857,6.55 12.3785714,5.71428571 10.7142857,5.71428571 L10.7142857,5.71428571 Z" id="Shape-Copy-7" fill="#BABABA" sketch:type="MSShapeGroup"></path>
    </g>
</svg>