<?xml version="1.0" encoding="UTF-8" standalone="no"?>
<svg width="9px" height="9px" viewBox="0 0 9 9" version="1.1" xmlns="http://www.w3.org/2000/svg" xmlns:xlink="http://www.w3.org/1999/xlink" xmlns:sketch="http://www.bohemiancoding.com/sketch/ns">
    <!-- Generator: Sketch 3.5.1 (25234) - http://www.bohemiancoding.com/sketch -->
    <title>Untitled</title>
    <desc>Created with Sketch.</desc>
    <defs></defs>
    <g id="Page-1" stroke="none" stroke-width="1" fill="none" fill-rule="evenodd" sketch:type="MSPage">
        <path d="M1.07951725,0.0585264635 L0.0548867967,1.0828091 C-0.0351084401,1.17235846 -0.0108754885,1.33876726 0.101550994,1.45090645 L3.15292103,4.49981454 L0.101550994,7.54836262 C-0.0108754885,7.66059181 -0.0351084401,7.82574063 0.0548867967,7.91609998 L1.07951725,8.94002262 C1.16996291,9.03074196 1.3363505,9.01787206 1.44823647,8.90600286 L4.49969659,5.85673478 L7.55160714,8.90600286 C7.66385345,9.01787206 7.82979061,9.03074196 7.92023627,8.94002262 L8.94522707,7.91609998 C9.03486196,7.82574063 9.01107944,7.66059181 8.89874304,7.54836262 L5.84728293,4.49981454 L8.89874304,1.45090645 C9.01107944,1.33876726 9.03486196,1.17235846 8.94522707,1.0828091 L7.92023627,0.0585264635 C7.82979061,-0.0310228928 7.66385345,-0.00717306423 7.55160714,0.104696132 L4.49969659,3.15396421 L1.44823647,0.104696132 C1.39211332,0.0483565366 1.31905412,0.00866682191 1.25266124,0.00146687366 C1.18644853,-0.00573307458 1.12519051,0.0136167863 1.07951725,0.0585264635 Z" id="Shape" fill="#BABABA" sketch:type="MSShapeGroup"></path>
    </g>
</svg>