<?xml version="1.0" encoding="UTF-8" standalone="no"?>
<svg width="11px" height="11px" viewBox="0 0 11 11" version="1.1" xmlns="http://www.w3.org/2000/svg" xmlns:xlink="http://www.w3.org/1999/xlink" xmlns:sketch="http://www.bohemiancoding.com/sketch/ns">
    <!-- Generator: Sketch 3.5.1 (25234) - http://www.bohemiancoding.com/sketch -->
    <title>Untitled</title>
    <desc>Created with Sketch.</desc>
    <defs></defs>
    <g id="Page-1" stroke="none" stroke-width="1" fill="none" fill-rule="evenodd" sketch:type="MSPage">
        <g id="ic_refresh_black_24px" sketch:type="MSLayerGroup" fill="#3B7FC4">
            <path d="M9.3833646,1.615625 C8.38586617,0.61875 7.01688555,0 5.49656035,0 C2.45590994,0 1.50102153e-13,2.46125 1.50102153e-13,5.5 C1.50102153e-13,8.53875 2.45590994,11 5.49656035,11 C8.06253909,11 10.2020013,9.246875 10.8142589,6.875 L9.3833646,6.875 C8.81926204,8.476875 7.29205754,9.625 5.49656035,9.625 C3.2195122,9.625 1.36898061,7.775625 1.36898061,5.5 C1.36898061,3.224375 3.2195122,1.375 5.49656035,1.375 C6.63852408,1.375 7.65666041,1.849375 8.39962477,2.59875 L6.18449031,4.8125 L11,4.8125 L11,0 L9.3833646,1.615625 L9.3833646,1.615625 Z" id="Shape" sketch:type="MSShapeGroup"></path>
        </g>
    </g>
</svg>