<?xml version="1.0" encoding="UTF-8" standalone="no"?>
<svg width="24px" height="24px" viewBox="0 0 24 24" version="1.1" xmlns="http://www.w3.org/2000/svg" xmlns:xlink="http://www.w3.org/1999/xlink" xmlns:sketch="http://www.bohemiancoding.com/sketch/ns">
    <!-- Generator: Sketch 3.4.3 (16618) - http://www.bohemiancoding.com/sketch -->
    <title>Untitled</title>
    <desc>Created with Sketch.</desc>
    <defs></defs>
    <g id="Page-1" stroke="none" stroke-width="1" fill="none" fill-rule="evenodd" sketch:type="MSPage">
        <g id="error" sketch:type="MSLayerGroup" fill="#D0011B">
            <path d="M12,23.75 C5.5,23.75 0.25,18.5 0.25,12 C0.25,5.5 5.5,0.25 12,0.25 C18.5,0.25 23.75,5.5 23.75,12 C23.75,18.5 18.5,23.75 12,23.75 L12,23.75 Z M12,1.25 C6.05,1.25 1.25,6.05 1.25,12 C1.25,17.95 6.05,22.75 12,22.75 C17.95,22.75 22.75,17.95 22.75,12 C22.75,6.05 17.95,1.25 12,1.25 L12,1.25 Z" id="Shape" sketch:type="MSShapeGroup"></path>
            <path d="M11.55,14.95 L11.1,8.7 L11.1,6.1 L12.9,6.1 L12.9,8.7 L12.5,14.95 L11.55,14.95 L11.55,14.95 Z M11.15,17.9 L11.15,16.25 L12.8,16.25 L12.8,17.9 L11.15,17.9 L11.15,17.9 Z" id="Shape" sketch:type="MSShapeGroup"></path>
        </g>
    </g>
</svg>