<?xml version="1.0" encoding="UTF-8" standalone="no"?>
<svg width="12px" height="12px" viewBox="0 0 12 12" version="1.1" xmlns="http://www.w3.org/2000/svg" xmlns:xlink="http://www.w3.org/1999/xlink" xmlns:sketch="http://www.bohemiancoding.com/sketch/ns">
    <!-- Generator: Sketch 3.5.1 (25234) - http://www.bohemiancoding.com/sketch -->
    <title>Slice 1</title>
    <desc>Created with Sketch.</desc>
    <defs></defs>
    <g id="Page-1" stroke="none" stroke-width="1" fill="none" fill-rule="evenodd" sketch:type="MSPage">
        <path d="M10.6666667,0 L1.33333333,0 C0.593333333,0 0,0.6 0,1.33333333 L0,10.6666667 C0,11.4 0.593333333,12 1.33333333,12 L10.6666667,12 C11.4,12 12,11.4 12,10.6666667 L12,1.33333333 C12,0.6 11.4,0 10.6666667,0 L10.6666667,0 Z M9.33333333,6.66666667 L6.66666667,6.66666667 L6.66666667,9.33333333 L5.33333333,9.33333333 L5.33333333,6.66666667 L2.66666667,6.66666667 L2.66666667,5.33333333 L5.33333333,5.33333333 L5.33333333,2.66666667 L6.66666667,2.66666667 L6.66666667,5.33333333 L9.33333333,5.33333333 L9.33333333,6.66666667 L9.33333333,6.66666667 Z" id="Shape-Copy-5" fill="#CCCCCC" sketch:type="MSShapeGroup"></path>
    </g>
</svg>