<?xml version="1.0" encoding="UTF-8" standalone="no"?>
<svg width="13px" height="11px" viewBox="0 0 13 11" version="1.1" xmlns="http://www.w3.org/2000/svg" xmlns:xlink="http://www.w3.org/1999/xlink" xmlns:sketch="http://www.bohemiancoding.com/sketch/ns">
    <!-- Generator: Sketch 3.5.1 (25234) - http://www.bohemiancoding.com/sketch -->
    <title>Untitled</title>
    <desc>Created with Sketch.</desc>
    <defs></defs>
    <g id="Page-1" stroke="none" stroke-width="1" fill="none" fill-rule="evenodd" sketch:type="MSPage">
        <g id="grid" sketch:type="MSLayerGroup" fill="#BABABA">
            <path d="M0.666666667,4.94871795 L4.19607843,4.94871795 L4.19607843,0.333333333 L0.666666667,0.333333333 L0.666666667,4.94871795 L0.666666667,4.94871795 Z M0.666666667,10.3333333 L4.19607843,10.3333333 L4.19607843,5.71794872 L0.666666667,5.71794872 L0.666666667,10.3333333 L0.666666667,10.3333333 Z M4.90196078,10.3333333 L8.43137255,10.3333333 L8.43137255,5.71794872 L4.90196078,5.71794872 L4.90196078,10.3333333 L4.90196078,10.3333333 Z M9.1372549,10.3333333 L12.6666667,10.3333333 L12.6666667,5.71794872 L9.1372549,5.71794872 L9.1372549,10.3333333 L9.1372549,10.3333333 Z M4.90196078,4.94871795 L8.43137255,4.94871795 L8.43137255,0.333333333 L4.90196078,0.333333333 L4.90196078,4.94871795 L4.90196078,4.94871795 Z M9.1372549,0.333333333 L9.1372549,4.94871795 L12.6666667,4.94871795 L12.6666667,0.333333333 L9.1372549,0.333333333 L9.1372549,0.333333333 Z" id="Shape" sketch:type="MSShapeGroup"></path>
        </g>
    </g>
</svg>