<?xml version="1.0" encoding="UTF-8" standalone="no"?>
<svg width="16px" height="9px" viewBox="0 0 16 9" version="1.1" xmlns="http://www.w3.org/2000/svg" xmlns:xlink="http://www.w3.org/1999/xlink" xmlns:sketch="http://www.bohemiancoding.com/sketch/ns">
    <!-- Generator: Sketch 3.5.1 (25234) - http://www.bohemiancoding.com/sketch -->
    <title>Untitled</title>
    <desc>Created with Sketch.</desc>
    <defs></defs>
    <g id="Page-1" stroke="none" stroke-width="1" fill="none" fill-rule="evenodd" sketch:type="MSPage">
        <g id="icon" sketch:type="MSLayerGroup" fill="#FFFFFF">
            <path d="M15.6856471,4.40470477 C15.6853333,4.39811653 15.6847059,4.39184202 15.6842353,4.38541065 C15.6839216,4.38211653 15.6837647,4.37882242 15.683451,4.37568516 C15.6829804,4.37097928 15.6821961,4.3662734 15.6815686,4.36172438 C15.6809412,4.35623418 15.6803137,4.35074398 15.6793725,4.34541065 C15.6792157,4.3447832 15.6790588,4.34399889 15.6790588,4.34337144 C15.6597647,4.22211653 15.6026667,4.10839104 15.5151373,4.02086163 C15.0147451,3.42776359 14.419451,2.89992045 13.8141176,2.41788124 C12.5104314,1.37913614 11.019451,0.510116533 9.37364706,0.160312612 C8.42243137,-0.0417266039 7.4652549,-0.0503540548 6.50901961,0.120626337 C5.63921569,0.27623418 4.80094118,0.599685161 4.01631373,1.00062634 C2.78823529,1.62807732 1.66666667,2.49317536 0.689411765,3.46305771 C0.50854902,3.64250869 0.328627451,3.82572438 0.164235294,4.02070477 C-0.054745098,4.28015575 -0.054745098,4.58744987 0.164235294,4.84690085 C0.664627451,5.43999889 1.25992157,5.96768516 1.8652549,6.44988124 C3.16909804,7.48862634 4.66007843,8.35748908 6.30588235,8.707293 C7.25709804,8.90948908 8.21443137,8.91811653 9.17066667,8.74713614 C10.0403137,8.5915283 10.8785882,8.26807732 11.6633725,7.86713614 C12.891451,7.2395283 14.0130196,6.37458712 14.9902745,5.40470477 C15.1711373,5.22509693 15.3510588,5.0420381 15.515451,4.84705771 C15.6029804,4.75937144 15.6600784,4.64580281 15.6793725,4.52439104 C15.6793725,4.52376359 15.6795294,4.52297928 15.6796863,4.52235183 C15.6806275,4.51686163 15.6812549,4.5115283 15.6818824,4.5060381 C15.6825098,4.50148908 15.6832941,4.4967832 15.6837647,4.49207732 C15.6840784,4.4887832 15.6842353,4.48564595 15.684549,4.48235183 C15.6850196,4.47607732 15.6856471,4.46980281 15.6859608,4.46321457 C15.6864314,4.45348908 15.6867451,4.44376359 15.6867451,4.43388124 C15.6867451,4.42399889 15.6861176,4.41443026 15.6856471,4.40470477 L15.6856471,4.40470477 Z M7.84329412,7.45207732 C6.17631373,7.45207732 4.82509804,6.10086163 4.82509804,4.43388124 C4.82509804,2.76705771 6.17631373,1.41568516 7.84329412,1.41568516 C9.51027451,1.41568516 10.8614902,2.76690085 10.8614902,4.43388124 C10.8614902,6.10086163 9.51027451,7.45207732 7.84329412,7.45207732 L7.84329412,7.45207732 Z" id="Shape" sketch:type="MSShapeGroup"></path>
            <ellipse id="Oval" sketch:type="MSShapeGroup" cx="9" cy="4.43388235" rx="0.999058824" ry="0.999058824"></ellipse>
        </g>
    </g>
</svg>