<?xml version="1.0" encoding="UTF-8" standalone="no"?>
<svg width="12px" height="12px" viewBox="0 0 12 12" version="1.1" xmlns="http://www.w3.org/2000/svg" xmlns:xlink="http://www.w3.org/1999/xlink" xmlns:sketch="http://www.bohemiancoding.com/sketch/ns">
    <!-- Generator: Sketch 3.5.1 (25234) - http://www.bohemiancoding.com/sketch -->
    <title>Untitled</title>
    <desc>Created with Sketch.</desc>
    <defs></defs>
    <g id="Page-1" stroke="none" stroke-width="1" fill="none" fill-rule="evenodd" sketch:type="MSPage">
        <g id="Earth" sketch:type="MSLayerGroup" transform="translate(1.000000, 1.000000)" fill="#BABABA">
            <path id="Shape" sketch:type="MSShapeGroup" d="M6.7712,4.1909 L6.9135,4.3909 L6.9409,4.3854 L6.952,4.2605 L6.9615,4.1219 L6.9452,4.04 L6.9013,4.0295 L6.8406,4.0902 L6.7326,4.1255 L6.7712,4.1909 Z"></path>
            <path d="M9.705,3.3128 C9.6979,3.2928 9.6899,3.2733 9.6824,3.2534 C9.6555,3.1817 9.6271,3.1103 9.5968,3.0392 C9.5832,3.0072 9.5693,2.9756 9.555,2.944 C9.5445,2.9207 9.5352,2.8972 9.5242,2.874 C9.497,2.816 9.4686,2.7588 9.4394,2.7023 C9.4365,2.6966 9.4333,2.6912 9.4304,2.6856 C9.3842,2.5971 9.3356,2.5107 9.2849,2.4262 C9.2817,2.4208 9.2786,2.4153 9.2753,2.4099 C9.2209,2.3199 9.1638,2.2324 9.1045,2.147 C9.1031,2.145 9.1019,2.143 9.1005,2.1411 C8.7258,1.6024 8.2568,1.155 7.7271,0.8108 C7.7241,0.8088 7.7211,0.8069 7.7181,0.805 C7.6319,0.7492 7.5441,0.6961 7.4548,0.6458 C7.4474,0.6416 7.4399,0.6376 7.4324,0.6335 C7.3451,0.5849 7.2565,0.5387 7.1666,0.4955 C7.1578,0.4911 7.1488,0.4872 7.14,0.483 C7.0491,0.44 6.9572,0.3993 6.8639,0.3618 C6.8581,0.3595 6.8523,0.3575 6.8465,0.3552 C6.7515,0.3175 6.6555,0.2825 6.5584,0.2507 C6.5548,0.2495 6.5513,0.2482 6.5477,0.247 C6.447,0.2142 6.3453,0.1849 6.2426,0.1586 C6.2392,0.1577 6.236,0.1565 6.2325,0.1557 C6.2325,0.1557 6.2324,0.1558 6.2324,0.1559 C5.8309,0.0533 5.4157,0 4.9966,0 C4.9666,0 4.9364,0.0019 4.9063,0.0024 C4.8866,0.0027 4.8668,0.0034 4.8472,0.004 C4.6793,0.0091 4.5112,0.0227 4.343,0.045 C4.3181,0.0483 4.2933,0.0514 4.2685,0.0551 C4.2213,0.0621 4.1741,0.0697 4.127,0.0781 C4.0941,0.0839 4.0615,0.0905 4.0289,0.097 C3.9696,0.1088 3.9103,0.1215 3.8512,0.1355 C3.8004,0.1475 3.7498,0.1599 3.6996,0.1734 C3.6671,0.1822 3.6346,0.1917 3.6021,0.2012 C3.5503,0.2163 3.4989,0.2323 3.4478,0.249 C3.4232,0.2571 3.3986,0.2647 3.374,0.2732 C3.2983,0.2993 3.2234,0.3272 3.1492,0.3567 C3.1328,0.3633 3.1165,0.3704 3.1,0.3771 C3.0348,0.4039 2.9703,0.4321 2.9064,0.4616 C2.8956,0.4665 2.8847,0.4707 2.8739,0.4758 C2.8671,0.479 2.8606,0.4826 2.8538,0.4859 C2.7848,0.5188 2.7163,0.5526 2.6489,0.5886 C2.6359,0.5955 2.6234,0.603 2.6105,0.61 C2.5588,0.6381 2.5076,0.667 2.4569,0.697 C2.4261,0.7152 2.3958,0.7339 2.3655,0.7526 C2.3353,0.7714 2.3052,0.7904 2.2755,0.8098 C2.2398,0.833 2.2042,0.8562 2.1692,0.8802 C2.1525,0.8917 2.1362,0.9036 2.1196,0.9153 C1.9806,1.0131 1.8477,1.1172 1.7212,1.227 C1.7125,1.2346 1.7037,1.2421 1.6951,1.2497 C1.6521,1.2876 1.6097,1.326 1.5682,1.3651 C1.5631,1.3699 1.5581,1.3749 1.553,1.3797 C1.424,1.5025 1.3025,1.6314 1.1885,1.7658 C1.1791,1.7769 1.1696,1.7877 1.1603,1.7989 C1.1291,1.8364 1.0988,1.8743 1.0687,1.9126 C1.0534,1.9321 1.0381,1.9518 1.0231,1.9716 C0.9961,2.007 0.9695,2.0425 0.9436,2.0786 C0.9256,2.1036 0.9082,2.1291 0.8906,2.1545 C0.8677,2.1876 0.8446,2.2205 0.8225,2.2541 C0.7855,2.3103 0.7496,2.3673 0.7148,2.4253 C0.7001,2.4498 0.6864,2.4748 0.6722,2.4996 C0.6493,2.5393 0.6265,2.579 0.6046,2.6195 C0.59,2.6466 0.576,2.6738 0.5619,2.7011 C0.5416,2.7403 0.5217,2.7798 0.5023,2.8197 C0.4891,2.8471 0.476,2.8745 0.4633,2.9022 C0.4441,2.9439 0.4255,2.986 0.4073,3.0283 C0.3964,3.0542 0.3852,3.08 0.3745,3.106 C0.3705,3.1157 0.3662,3.1251 0.3622,3.1348 C0.3628,3.1341 0.3635,3.1333 0.3642,3.1326 C0.2076,3.5216 0.0997,3.9297 0.0442,4.3471 L0.044,4.3471 C0.0419,4.3627 0.0411,4.3783 0.0392,4.3939 C0.03,4.4683 0.022,4.543 0.0161,4.6179 C0.0144,4.6394 0.0138,4.6608 0.0124,4.6823 C0.0078,4.7531 0.0042,4.824 0.0026,4.8952 C0.0022,4.9154 0.0025,4.9356 0.0023,4.9558 C0.0016,5.0282 0.0022,5.1006 0.0046,5.1732 C0.0052,5.1916 0.0063,5.2099 0.0071,5.2283 C0.0104,5.3025 0.0153,5.3766 0.022,5.451 C0.0235,5.4676 0.0252,5.4841 0.0269,5.5007 C0.0344,5.5758 0.0437,5.6508 0.0547,5.7258 C0.057,5.7417 0.0594,5.7577 0.0619,5.7737 C0.0735,5.8477 0.0869,5.9216 0.1019,5.9954 C0.1054,6.0124 0.1087,6.0294 0.1123,6.0463 C0.1274,6.1168 0.1444,6.1872 0.1627,6.2574 C0.1679,6.2774 0.1728,6.2974 0.1783,6.3173 C0.1959,6.3817 0.2154,6.4457 0.2357,6.5097 C0.2437,6.535 0.2513,6.5605 0.2598,6.5857 C0.2786,6.6417 0.2992,6.6972 0.3201,6.7529 C0.3321,6.7848 0.3435,6.817 0.3561,6.8486 C0.3752,6.8965 0.3961,6.944 0.4168,6.9916 C0.4331,7.0291 0.4487,7.0668 0.4659,7.1038 C0.4693,7.1112 0.4722,7.1188 0.4757,7.1263 C0.5063,7.1914 0.5384,7.2553 0.5715,7.3184 C0.5784,7.3317 0.5858,7.3448 0.5928,7.358 C0.6294,7.4265 0.6673,7.4937 0.7066,7.5599 C0.7111,7.5674 0.7154,7.5751 0.7199,7.5827 C0.7669,7.6607 0.8158,7.737 0.8664,7.8117 C0.8665,7.8118 0.8665,7.8119 0.8666,7.812 C1.8104,9.2023 3.3772,10 5.0034,10 C5.7156,10 6.4389,9.8472 7.1261,9.5242 C9.4799,8.4181 10.5684,5.7117 9.705,3.3128 L9.705,3.3128 Z M7.041,9.3432 C6.3959,9.6463 5.7104,9.8 5.0034,9.8 C3.5303,9.8 2.1504,9.1149 1.2506,7.9919 C1.2378,7.9582 1.225,7.9246 1.2122,7.8909 C1.2673,7.8975 1.3225,7.904 1.3775,7.9106 C1.4077,7.9013 1.4379,7.8922 1.468,7.883 C1.4785,7.8175 1.489,7.7518 1.4995,7.6861 C1.4916,7.6075 1.4838,7.5287 1.4759,7.45 C1.4614,7.412 1.447,7.3739 1.4325,7.3358 C1.4522,7.3227 1.472,7.3096 1.4916,7.2964 C1.5008,7.2596 1.51,7.2229 1.5191,7.1861 C1.548,7.1665 1.5769,7.1467 1.6057,7.1271 C1.6097,7.0602 1.6136,6.9932 1.6175,6.9263 C1.6004,6.8882 1.5834,6.8501 1.5663,6.812 C1.5283,6.7911 1.4902,6.7701 1.4521,6.7491 C1.414,6.6835 1.376,6.6178 1.3379,6.5522 C1.2867,6.5234 1.2356,6.4945 1.1844,6.4656 C1.124,6.4289 1.0637,6.3922 1.0033,6.3553 C0.9691,6.2937 0.935,6.232 0.9009,6.1702 C0.8511,6.1073 0.8012,6.0442 0.7514,5.9813 L0.7514,5.8001 C0.7343,5.745 0.7172,5.6898 0.7001,5.6348 C0.6529,5.5626 0.6057,5.4905 0.5584,5.4183 C0.5243,5.3329 0.4901,5.2477 0.4561,5.1624 C0.443,5.0758 0.4298,4.9893 0.4167,4.9025 C0.4022,4.8462 0.3878,4.7897 0.3734,4.7333 C0.3279,4.6363 0.2824,4.5393 0.2369,4.4422 C0.2583,4.2623 0.2901,4.0841 0.3312,3.9084 L0.3861,4.0639 L0.4662,4.1827 L0.5281,4.2163 L0.4584,4.0639 L0.407,3.8836 L0.4045,3.7131 L0.3978,3.6567 C0.5209,3.2349 0.7009,2.8304 0.9343,2.4561 C0.9729,2.4274 1.0115,2.3988 1.0501,2.3701 C1.0983,2.3254 1.1466,2.2806 1.1947,2.2358 C1.2662,2.2083 1.3377,2.1807 1.4092,2.1532 C1.4488,2.1368 1.4884,2.1205 1.528,2.1041 C1.5323,2.1316 1.5366,2.1593 1.5409,2.1868 C1.5805,2.1876 1.6201,2.1885 1.6597,2.1893 C1.7165,2.1704 1.7734,2.1514 1.8302,2.1325 C1.7777,2.1136 1.7251,2.0946 1.6727,2.0758 C1.7071,2.0447 1.7415,2.0138 1.7759,1.9827 C1.8035,1.9543 1.8311,1.9259 1.8586,1.8974 C1.8465,1.8673 1.8345,1.8371 1.8225,1.8071 C1.8551,1.8036 1.8879,1.8002 1.9206,1.7967 C1.9576,1.8312 1.9946,1.8655 2.0316,1.9 C2.0703,1.8991 2.109,1.8982 2.1478,1.8974 C2.1832,1.8957 2.2184,1.894 2.2538,1.8923 C2.2796,1.8466 2.3054,1.801 2.3312,1.7554 C2.3493,1.6908 2.3673,1.6262 2.3854,1.5616 C2.4698,1.4583 2.5542,1.355 2.6386,1.2516 C2.5791,1.2671 2.5198,1.2827 2.4604,1.2981 C2.5042,1.243 2.5482,1.1879 2.592,1.1329 C2.6222,1.0847 2.6523,1.0364 2.6824,0.9882 C2.6325,1.0107 2.5825,1.033 2.5326,1.0554 C2.4603,1.1105 2.388,1.1657 2.3157,1.2207 C2.2596,1.2465 2.2037,1.2724 2.1477,1.2981 C2.0694,1.3292 1.9911,1.3601 1.9126,1.3912 C1.9858,1.3283 2.059,1.2654 2.1321,1.2026 C2.1509,1.1724 2.1695,1.1422 2.1882,1.1121 C2.3769,0.9757 2.5775,0.8516 2.7898,0.7415 C2.8237,0.7454 2.8576,0.7493 2.8916,0.7532 C2.896,0.7893 2.9002,0.8255 2.9046,0.8617 C2.8771,0.909 2.8494,0.9563 2.8219,1.0037 C2.7995,1.0433 2.7772,1.0829 2.7548,1.1225 C2.8176,1.1234 2.8805,1.1243 2.9433,1.125 C3.0105,1.0897 3.0776,1.0544 3.1448,1.0191 C3.2223,0.983 3.2998,0.9467 3.3773,0.9106 C3.4461,0.8804 3.515,0.8503 3.5839,0.8202 C3.5572,0.8047 3.5305,0.7892 3.5038,0.7737 C3.5012,0.747 3.4986,0.7204 3.4961,0.6936 C3.5253,0.6601 3.5546,0.6265 3.5839,0.5929 C3.5993,0.5593 3.6149,0.5257 3.6304,0.4921 C3.6536,0.5128 3.6769,0.5334 3.7001,0.5541 C3.7112,0.5395 3.7225,0.5248 3.7337,0.5102 C3.7604,0.5188 3.787,0.5275 3.8138,0.5361 C3.8612,0.5404 3.9084,0.5447 3.9558,0.549 C3.924,0.5912 3.8921,0.6334 3.8603,0.6756 C3.8422,0.6963 3.8242,0.7169 3.806,0.7376 C3.7699,0.7807 3.7337,0.8237 3.6975,0.8667 C3.6399,0.9167 3.5822,0.9666 3.5245,1.0165 C3.4867,1.0286 3.4488,1.0406 3.4109,1.0527 C3.3713,1.0931 3.3317,1.1336 3.2921,1.1741 C3.2525,1.1947 3.2129,1.2154 3.1733,1.2361 C3.132,1.2774 3.0907,1.3187 3.0494,1.36 C3.0296,1.3927 3.0098,1.4254 2.9899,1.4581 C3.0003,1.4685 3.0106,1.4788 3.021,1.4892 C3.0133,1.5141 3.0055,1.5391 2.9978,1.564 C3.0233,1.5771 3.0488,1.5902 3.0743,1.6032 C3.101,1.5808 3.1277,1.5585 3.1544,1.5361 C3.1914,1.5129 3.2284,1.4896 3.2654,1.4664 C3.3092,1.4396 3.3533,1.413 3.3971,1.3863 C3.4436,1.3811 3.4901,1.3759 3.5366,1.3708 C3.5927,1.3519 3.6485,1.3329 3.7045,1.314 C3.7329,1.2959 3.7613,1.2779 3.7899,1.2598 C3.8182,1.2666 3.8466,1.2736 3.8751,1.2804 C3.9466,1.2693 4.0181,1.258 4.0895,1.2468 C4.1179,1.2271 4.1463,1.2072 4.1748,1.1874 C4.2093,1.1521 4.2437,1.1168 4.2781,1.0815 C4.328,1.035 4.378,0.9885 4.4279,0.942 C4.4563,0.9109 4.4847,0.88 4.5132,0.8489 C4.5511,0.8136 4.589,0.7783 4.6269,0.743 C4.657,0.731 4.6872,0.7189 4.7172,0.7069 C4.6979,0.67 4.6789,0.6331 4.66,0.596 C4.6987,0.6158 4.7374,0.6356 4.7762,0.6555 C4.8459,0.6666 4.9157,0.6779 4.9854,0.689 C5.0526,0.6873 5.1197,0.6856 5.1869,0.6838 C5.2713,0.6692 5.3557,0.6546 5.44,0.64 C5.4615,0.6125 5.4831,0.5849 5.5046,0.5574 C5.552,0.5694 5.5993,0.5814 5.6467,0.5935 C5.6691,0.5917 5.6914,0.5901 5.7139,0.5883 C5.7095,0.553 5.7052,0.5177 5.7009,0.4824 C5.7284,0.4643 5.756,0.4462 5.7836,0.4281 C5.824,0.4135 5.8645,0.3988 5.905,0.3843 C5.9523,0.386 5.9997,0.3877 6.0471,0.3894 C6.0494,0.3686 6.052,0.3477 6.0544,0.3268 C6.0506,0.3235 6.0467,0.3202 6.0429,0.3169 C6.1343,0.3375 6.2249,0.3609 6.3147,0.3867 C6.3112,0.4013 6.3076,0.416 6.3041,0.4307 C6.2804,0.4167 6.2566,0.4028 6.2329,0.3888 C6.1869,0.3986 6.1408,0.4083 6.0948,0.4181 C6.1074,0.453 6.1199,0.4878 6.1325,0.5227 C6.189,0.5806 6.2455,0.6385 6.3019,0.6964 C6.2998,0.7444 6.2978,0.7926 6.2956,0.8407 C6.3353,0.872 6.3751,0.9035 6.4148,0.9348 C6.3855,0.9829 6.3562,1.031 6.3269,1.0791 C6.3457,1.0826 6.3646,1.0861 6.3834,1.0895 C6.4008,1.1097 6.4183,1.1299 6.4356,1.1502 C6.3854,1.1648 6.3352,1.1794 6.285,1.194 C6.2675,1.2366 6.2501,1.2792 6.2327,1.3216 C6.2153,1.3349 6.1978,1.3482 6.1805,1.3614 C6.154,1.3795 6.1275,1.3976 6.101,1.4157 C6.08,1.3997 6.0591,1.3837 6.0382,1.3677 C6.0214,1.3544 6.0047,1.3411 5.9879,1.3279 C5.9587,1.3189 5.9294,1.3098 5.9001,1.3008 C5.8562,1.2973 5.8122,1.2939 5.7683,1.2904 C5.7453,1.2869 5.7223,1.2835 5.6993,1.28 C5.686,1.2779 5.6728,1.2758 5.6596,1.2737 C5.6443,1.2597 5.6289,1.2458 5.6136,1.2318 L5.5341,1.2318 C5.5048,1.2374 5.4755,1.2429 5.4462,1.2485 C5.4142,1.2569 5.382,1.2653 5.35,1.2737 C5.3276,1.3015 5.3054,1.3295 5.283,1.3573 C5.269,1.3887 5.2551,1.4201 5.2412,1.4514 C5.2237,1.4751 5.2062,1.4989 5.1889,1.5226 C5.1617,1.5512 5.1345,1.5798 5.1073,1.6083 C5.0815,1.6251 5.0557,1.6418 5.0299,1.6586 C5.002,1.6913 4.9741,1.7241 4.9462,1.7568 C4.9161,1.784 4.8862,1.8112 4.8562,1.8384 C4.8514,1.8649 4.8464,1.8914 4.8416,1.9179 C4.8437,1.9388 4.8457,1.9597 4.8479,1.9807 C4.8535,2.0009 4.859,2.0211 4.8646,2.0413 C4.8744,2.058 4.8841,2.0748 4.8939,2.0915 C4.9085,2.0992 4.9232,2.1068 4.9378,2.1145 C4.9629,2.1026 4.988,2.0908 5.0131,2.079 C5.0145,2.0615 5.0159,2.0441 5.0173,2.0267 C5.0508,2.0191 5.0843,2.0114 5.1177,2.0038 C5.1192,2.0163 5.1205,2.0288 5.1219,2.0414 C5.1373,2.0693 5.1527,2.0972 5.168,2.1251 C5.1798,2.1446 5.1916,2.1642 5.2035,2.1837 C5.2014,2.1955 5.1993,2.2074 5.1972,2.2192 C5.1986,2.2367 5.1999,2.2541 5.2013,2.2715 C5.2257,2.275 5.2501,2.2784 5.2745,2.2819 C5.2891,2.2693 5.3038,2.2568 5.3184,2.2442 C5.3435,2.2268 5.3686,2.2093 5.3937,2.1919 C5.3861,2.1696 5.3784,2.1473 5.3708,2.125 C5.368,2.1026 5.3652,2.0804 5.3624,2.058 C5.3993,2.0427 5.4363,2.0273 5.4733,2.012 C5.46,1.9918 5.4467,1.9716 5.4335,1.9514 C5.4084,1.9368 5.3833,1.9221 5.3582,1.9075 C5.3597,1.8629 5.361,1.8182 5.3624,1.7736 C5.3924,1.7492 5.4224,1.7248 5.4523,1.7004 C5.4614,1.6733 5.4705,1.646 5.4794,1.6188 C5.4927,1.5972 5.506,1.5756 5.5192,1.554 C5.5512,1.5547 5.5834,1.5555 5.6154,1.5561 C5.6203,1.5798 5.6252,1.6035 5.63,1.6272 C5.6029,1.6488 5.5756,1.6705 5.5484,1.692 C5.5401,1.7186 5.5317,1.745 5.5233,1.7715 C5.5374,1.805 5.5512,1.8385 5.5652,1.872 C5.5785,1.8915 5.5917,1.9111 5.6049,1.9306 C5.6426,1.9285 5.6803,1.9264 5.7179,1.9243 C5.7367,1.9048 5.7555,1.8852 5.7743,1.8658 C5.8169,1.8755 5.8595,1.8852 5.9019,1.895 C5.9012,1.9055 5.9005,1.916 5.8998,1.9264 C5.8831,1.9355 5.8663,1.9445 5.8496,1.9535 C5.8147,1.9661 5.7799,1.9786 5.7449,1.9912 C5.7198,1.9975 5.6947,2.0038 5.6696,2.01 C5.6571,2.0323 5.6445,2.0546 5.632,2.0769 C5.641,2.0873 5.6501,2.0978 5.6591,2.1082 C5.6431,2.1139 5.6271,2.1194 5.611,2.125 C5.616,2.1578 5.6208,2.1905 5.6256,2.2233 C5.6382,2.2442 5.6507,2.2651 5.6633,2.2861 C5.634,2.3056 5.6047,2.3252 5.5754,2.3447 C5.5579,2.3488 5.5405,2.353 5.5231,2.3572 C5.5121,2.3474 5.5008,2.3377 5.4897,2.3279 C5.4813,2.3335 5.473,2.339 5.4646,2.3447 C5.4471,2.3565 5.4297,2.3683 5.4123,2.3802 C5.3935,2.3892 5.3747,2.3984 5.3559,2.4073 C5.349,2.4226 5.3419,2.438 5.3349,2.4534 C5.3189,2.4393 5.3029,2.4255 5.2869,2.4115 C5.2765,2.3948 5.266,2.378 5.2555,2.3613 C5.243,2.3738 5.2304,2.3864 5.2179,2.399 C5.1837,2.3962 5.1495,2.3933 5.1154,2.3906 C5.1036,2.3718 5.0916,2.3529 5.0798,2.3341 C5.0867,2.3112 5.0938,2.2881 5.1007,2.2651 C5.1098,2.2449 5.1189,2.2247 5.1279,2.2045 C5.1132,2.1829 5.0986,2.1612 5.0839,2.1397 C5.0678,2.1537 5.0518,2.1676 5.0358,2.1815 C5.0191,2.2003 5.0023,2.2192 4.9856,2.238 C4.996,2.2735 5.0065,2.3091 5.0169,2.3447 C5.0183,2.369 5.0197,2.3934 5.0211,2.4179 C5.0002,2.4255 4.9792,2.4332 4.9583,2.4408 L4.8789,2.4408 C4.8628,2.4519 4.8468,2.4632 4.8307,2.4742 C4.8167,2.4972 4.8029,2.5203 4.7889,2.5433 C4.7701,2.5593 4.7512,2.5753 4.7325,2.5914 C4.6997,2.6032 4.6669,2.6151 4.6342,2.6269 C4.6321,2.6436 4.6299,2.6603 4.6279,2.6771 C4.6035,2.691 4.5791,2.7049 4.5548,2.7189 C4.5527,2.7287 4.5506,2.7385 4.5485,2.7482 C4.513,2.744 4.4774,2.7399 4.4419,2.7357 C4.4377,2.7517 4.4335,2.7677 4.4293,2.7837 C4.416,2.7887 4.4028,2.7936 4.3896,2.7983 C4.363,2.7886 4.3366,2.7788 4.3101,2.7691 C4.2871,2.7809 4.264,2.7928 4.2411,2.8046 C4.2515,2.8164 4.262,2.8283 4.2724,2.8401 C4.308,2.8533 4.3436,2.8666 4.3791,2.8798 C4.384,2.9014 4.3889,2.923 4.3937,2.9446 C4.4063,2.9571 4.4188,2.9698 4.4314,2.9823 C4.4279,2.9969 4.4244,3.0115 4.4209,3.0261 C4.4146,3.0673 4.4084,3.1084 4.4021,3.1496 C4.3875,3.1663 4.3728,3.1831 4.3582,3.1998 C4.3212,3.2012 4.2843,3.2026 4.2473,3.204 C4.1909,3.1928 4.1343,3.1816 4.0779,3.1704 C4.0437,3.1739 4.0095,3.1774 3.9754,3.1809 C3.9559,3.206 3.9363,3.2311 3.9168,3.2563 C3.8897,3.2918 3.8624,3.3274 3.8353,3.3629 C3.8388,3.3936 3.8422,3.4242 3.8457,3.4549 C3.838,3.4821 3.8304,3.5093 3.8227,3.5365 C3.8318,3.5657 3.8409,3.5951 3.8499,3.6244 C3.8659,3.6404 3.8819,3.6564 3.8979,3.6724 C3.9279,3.6801 3.958,3.6877 3.9878,3.6954 C3.9886,3.7205 3.9893,3.7456 3.9899,3.7708 C4.0025,3.7784 4.015,3.786 4.0276,3.7937 C4.0534,3.7819 4.0792,3.7701 4.1049,3.7582 C4.1621,3.7575 4.2193,3.7569 4.2765,3.7562 C4.2898,3.7478 4.303,3.7394 4.3162,3.731 C4.3392,3.715 4.3622,3.699 4.3852,3.683 C4.3985,3.6689 4.4118,3.6551 4.4249,3.6411 C4.4151,3.6152 4.4055,3.5895 4.3957,3.5637 C4.4005,3.5379 4.4055,3.5121 4.4103,3.4864 C4.4354,3.4578 4.4605,3.4292 4.4857,3.4006 C4.5191,3.3895 4.5526,3.3783 4.5861,3.3671 C4.6035,3.3406 4.621,3.3141 4.6383,3.2877 C4.6418,3.2695 4.6453,3.2514 4.6487,3.2333 C4.6773,3.2263 4.7059,3.2193 4.7345,3.2123 C4.7631,3.2214 4.7916,3.2305 4.8202,3.2395 C4.8666,3.2219 4.9129,3.2044 4.9593,3.187 C4.9932,3.1768 5.0271,3.1668 5.061,3.1565 C5.0791,3.1644 5.0971,3.1723 5.1152,3.1802 C5.1231,3.1989 5.131,3.2175 5.1389,3.2362 C5.1616,3.2598 5.1841,3.2836 5.2068,3.3074 C5.227,3.3271 5.2474,3.347 5.2677,3.3667 C5.2983,3.3797 5.3287,3.3927 5.3592,3.4057 C5.3846,3.4192 5.4101,3.4328 5.4355,3.4464 C5.4542,3.461 5.4728,3.4757 5.4915,3.4903 C5.5033,3.5101 5.5151,3.5299 5.527,3.5497 C5.5253,3.5672 5.5236,3.5847 5.5219,3.6022 C5.5156,3.6147 5.5095,3.6271 5.5032,3.6395 C5.5106,3.6513 5.5178,3.6632 5.5253,3.675 C5.5355,3.6648 5.5456,3.6547 5.5558,3.6445 C5.5676,3.6281 5.5795,3.6118 5.5914,3.5954 C5.5965,3.5846 5.6016,3.5739 5.6066,3.5631 C5.6003,3.5525 5.5941,3.5417 5.5879,3.531 C5.5783,3.5214 5.5687,3.5118 5.5591,3.5022 C5.5648,3.4937 5.5704,3.4853 5.576,3.4768 C5.5806,3.4701 5.5851,3.4632 5.5896,3.4564 C5.6054,3.4667 5.6212,3.4768 5.6371,3.487 C5.6439,3.4966 5.6507,3.5062 5.6574,3.5158 C5.6665,3.509 5.6755,3.5022 5.6845,3.4955 C5.6681,3.4785 5.6518,3.4616 5.6354,3.4446 C5.6151,3.4305 5.5947,3.4164 5.5744,3.4022 C5.5541,3.387 5.5337,3.3717 5.5134,3.3565 C5.5028,3.3571 5.4919,3.3576 5.4813,3.3582 C5.4586,3.3514 5.4361,3.3447 5.4135,3.3379 C5.3993,3.3198 5.3852,3.3018 5.3711,3.2836 C5.3586,3.2599 5.3462,3.2362 5.3338,3.2125 C5.3157,3.204 5.2977,3.1955 5.2796,3.187 C5.2689,3.1679 5.2581,3.1486 5.2474,3.1295 C5.2507,3.1221 5.2541,3.1148 5.2576,3.1074 C5.2519,3.0962 5.2463,3.0847 5.2407,3.0735 C5.2474,3.065 5.2542,3.0565 5.261,3.048 C5.2802,3.0435 5.2994,3.039 5.3185,3.0345 C5.3344,3.0457 5.3502,3.0571 5.3661,3.0684 C5.3785,3.0847 5.3909,3.1011 5.4034,3.1175 C5.4169,3.135 5.4305,3.1525 5.444,3.1699 C5.4592,3.1824 5.4745,3.1948 5.4897,3.2072 C5.5078,3.2135 5.5258,3.2197 5.544,3.2259 C5.5536,3.2378 5.5631,3.2497 5.5728,3.2615 C5.6044,3.2688 5.6361,3.2761 5.6676,3.2835 C5.6846,3.3085 5.7015,3.3332 5.7185,3.3581 C5.7128,3.3785 5.7072,3.3988 5.7015,3.419 C5.7168,3.4349 5.7321,3.4507 5.7473,3.4666 C5.7704,3.4841 5.7936,3.5017 5.8167,3.5191 C5.8473,3.5236 5.8777,3.5281 5.9082,3.5326 C5.919,3.5524 5.9297,3.5722 5.9404,3.592 C5.9817,3.6101 6.0229,3.6281 6.0641,3.6462 C6.0714,3.6299 6.0788,3.6135 6.0862,3.597 C6.0607,3.5795 6.0353,3.562 6.0099,3.5446 C5.9997,3.527 5.9895,3.5095 5.9793,3.4921 C5.9726,3.4757 5.9658,3.4593 5.959,3.443 C5.9777,3.4215 5.9963,3.4001 6.015,3.3786 C6.0416,3.3763 6.068,3.374 6.0946,3.3718 L6.1658,3.3718 C6.1906,3.3616 6.2155,3.3514 6.2404,3.3413 C6.2512,3.3299 6.2621,3.3186 6.2729,3.3074 C6.2502,3.262 6.2275,3.2167 6.2048,3.1712 C6.2421,3.1551 6.2793,3.1389 6.3166,3.1227 C6.3651,3.0871 6.4138,3.0514 6.4624,3.0158 C6.498,3.0191 6.5337,3.0223 6.5693,3.0256 C6.5985,3.0029 6.6276,2.9802 6.6568,2.9575 C6.7005,2.9607 6.7442,2.9639 6.788,2.9673 C6.8333,2.9884 6.8787,3.0094 6.9241,3.0304 C6.9581,3.0515 6.9922,3.0726 7.0262,3.0937 L7.0262,3.1812 C6.9987,3.1924 6.9711,3.2039 6.9436,3.2152 C6.9063,3.2232 6.869,3.2314 6.8318,3.2395 C6.7929,3.2249 6.7541,3.2103 6.7152,3.1957 C6.6698,3.1924 6.6245,3.1892 6.5791,3.186 C6.5516,3.2102 6.524,3.2345 6.4965,3.2588 C6.4642,3.2686 6.4317,3.2782 6.3993,3.2881 C6.3652,3.3059 6.3312,3.3236 6.2972,3.3415 C6.2583,3.3593 6.2195,3.3771 6.1806,3.3949 C6.1838,3.4273 6.187,3.4597 6.1903,3.4921 C6.2244,3.5246 6.2584,3.5569 6.2924,3.5894 C6.328,3.6316 6.3637,3.6736 6.3993,3.7158 C6.4301,3.7077 6.4608,3.6996 6.4917,3.6915 C6.5029,3.6721 6.5144,3.6526 6.5257,3.6331 C6.5468,3.6494 6.5678,3.6656 6.5889,3.6818 C6.6327,3.6753 6.6764,3.6687 6.7201,3.6624 C6.7347,3.6429 6.7493,3.6234 6.7639,3.604 C6.8093,3.6072 6.8546,3.6105 6.9,3.6138 C6.8961,3.6392 6.8923,3.6646 6.8885,3.69 C6.887,3.757 6.8857,3.8239 6.8843,3.8909 C6.8899,3.9369 6.8954,3.9829 6.901,4.0289 C6.9156,4.0324 6.9303,4.0359 6.9449,4.0394 C6.956,4.0812 6.9673,4.1231 6.9784,4.165 C6.9721,4.19 6.9658,4.2152 6.9596,4.2402 C6.9631,4.2773 6.9666,4.3144 6.9701,4.3515 C6.9863,4.3628 7.0025,4.3742 7.0187,4.3855 C7.0527,4.426 7.0867,4.4666 7.1208,4.5071 C7.1499,4.5492 7.1791,4.5913 7.2082,4.6334 C7.2293,4.6464 7.2504,4.6594 7.2714,4.6723 C7.2958,4.7226 7.32,4.7729 7.3443,4.8231 C7.3686,4.8587 7.3929,4.8944 7.4172,4.9299 C7.4495,4.9429 7.4819,4.9558 7.5144,4.9689 C7.5323,5.0012 7.55,5.0336 7.5678,5.0661 C7.6051,5.105 7.6424,5.1438 7.6796,5.1828 C7.7285,5.3019 7.7774,5.4211 7.8263,5.5404 C7.9106,5.4788 7.9948,5.4173 8.079,5.3556 C8.1471,5.2909 8.215,5.226 8.2831,5.1613 C8.3058,5.1385 8.3284,5.1159 8.3512,5.0932 C8.3544,5.0592 8.3576,5.0252 8.3609,4.9911 C8.3918,4.962 8.4224,4.9329 8.4533,4.9037 C8.4744,4.8842 8.4954,4.8647 8.5165,4.8454 C8.5246,4.8065 8.5327,4.7676 8.5408,4.7287 C8.5602,4.7125 8.5797,4.6963 8.5991,4.6802 C8.5878,4.6461 8.5764,4.6121 8.565,4.5781 C8.5813,4.5376 8.5974,4.497 8.6136,4.4565 C8.6201,4.4225 8.6266,4.3884 8.633,4.3544 C8.599,4.3301 8.5649,4.3058 8.5309,4.2815 C8.505,4.2864 8.479,4.2914 8.4532,4.2961 C8.4321,4.2815 8.4111,4.2669 8.39,4.2523 C8.3689,4.2038 8.3479,4.155 8.3268,4.1065 C8.3122,4.155 8.2976,4.2038 8.283,4.2523 C8.2668,4.2831 8.2506,4.3138 8.2344,4.3447 C8.2069,4.3593 8.1793,4.3738 8.1519,4.3884 C8.1356,4.382 8.1194,4.3755 8.1033,4.369 C8.1016,4.3479 8.1,4.3269 8.0984,4.3058 C8.0903,4.2783 8.0822,4.2508 8.0741,4.2232 C8.0628,4.2313 8.0514,4.2395 8.0401,4.2475 L8.0401,4.3156 C8.0255,4.2977 8.0109,4.28 7.9963,4.2621 C7.9736,4.2347 7.9509,4.207 7.9282,4.1796 C7.8877,4.1423 7.8472,4.105 7.8067,4.0678 C7.8003,4.0354 7.7937,4.003 7.7873,3.9706 C7.8164,3.9543 7.8456,3.9381 7.8748,3.9219 L7.9817,4.0288 C7.9963,4.0499 8.0108,4.071 8.0254,4.0921 C8.0449,4.0904 8.0644,4.0888 8.0837,4.0872 C8.1129,4.1034 8.1421,4.1195 8.1712,4.1357 L8.2295,4.1357 C8.2555,4.1034 8.2814,4.071 8.3073,4.0385 C8.3234,4.0369 8.3397,4.0353 8.3559,4.0336 C8.372,4.0677 8.3882,4.1017 8.4044,4.1357 C8.4692,4.1163 8.534,4.0969 8.5988,4.0775 C8.6441,4.0531 8.6895,4.0288 8.7348,4.0046 C8.7657,3.9852 8.7964,3.9657 8.8272,3.9463 C8.8305,3.9446 8.8336,3.943 8.837,3.9413 C8.8693,3.9722 8.9018,4.0029 8.9342,4.0337 C8.9682,4.045 9.0023,4.0565 9.0363,4.0678 C9.0605,4.0483 9.0848,4.0288 9.1091,4.0094 C9.1415,4.0435 9.1739,4.0776 9.2064,4.1115 C9.2453,4.2022 9.2841,4.2929 9.323,4.3836 C9.3586,4.4501 9.3943,4.5165 9.4299,4.5829 C9.4704,4.6542 9.5109,4.7255 9.5514,4.7968 C9.5741,4.8664 9.5968,4.9361 9.6195,5.0058 C9.6293,4.9346 9.6389,4.8633 9.6487,4.792 C9.6454,4.6785 9.6423,4.565 9.6389,4.4518 C9.6146,4.4047 9.5903,4.3578 9.566,4.3109 C9.5773,4.2331 9.5887,4.1552 9.6,4.0776 C9.587,3.9819 9.574,3.8863 9.5611,3.7908 C9.5562,3.7374 9.5513,3.6839 9.5465,3.6304 C9.5554,3.6038 9.5643,3.5772 9.5731,3.5506 C10.2902,5.808 9.2412,8.3092 7.041,9.3432 L7.041,9.3432 Z" id="Shape" stroke="#BABABA" stroke-width="0.15" sketch:type="MSShapeGroup"></path>
            <path id="Shape" sketch:type="MSShapeGroup" d="M4.2337,1.5775 L4.1924,1.4768 L4.1202,1.4717 L4.0323,1.4613 L3.9368,1.4483 L3.8903,1.4871 L3.9161,1.5336 L3.8825,1.5879 L3.9264,1.624 L4.0297,1.6369 L4.1253,1.6111 L4.2337,1.5775 Z"></path>
            <path id="Shape" sketch:type="MSShapeGroup" d="M4.0543,2.5364 L4.1476,2.5127 L4.2069,2.4957 L4.2493,2.4381 L4.2712,2.3737 L4.3018,2.3382 L4.2611,2.2618 L4.19,2.25 L4.1493,2.3195 L4.1052,2.3364 L4.0967,2.3975 L4.0696,2.4179 L4.0645,2.4482 L4.034,2.4721 L4.0273,2.5246 L4.0543,2.5364 Z"></path>
            <path id="Shape" sketch:type="MSShapeGroup" d="M4.2442,2.6687 L4.3051,2.6432 L4.339,2.6533 L4.4,2.6229 L4.5035,2.6229 L4.6102,2.6127 L4.6407,2.5855 L4.6204,2.5499 L4.6661,2.5076 L4.6136,2.4652 L4.5747,2.4076 L4.5492,2.3482 L4.5153,2.3094 L4.512,2.2703 L4.4679,2.2313 L4.4747,2.1856 L4.5187,2.1534 L4.5272,2.0924 L4.5238,2.0162 L4.3255,2.0314 L4.3018,2.1246 L4.3154,2.2043 L4.3357,2.2788 L4.3916,2.3229 L4.4272,2.3907 L4.3781,2.4279 L4.3441,2.4279 L4.3475,2.4957 L4.3085,2.5144 L4.2917,2.5433 L4.3205,2.5805 L4.2442,2.6687 Z"></path>
            <path d="M7.7013,8.3729 L7.8408,8.3108 L7.9156,8.1921 L8.0371,7.9777 L8.13,7.7969 L8.2256,7.6187 L8.2153,7.3682 L8.1455,7.4947 L8.1223,7.4947 L8.0913,7.5516 L8.0112,7.6497 L7.9183,7.7271 L7.8305,7.7762 L7.8149,7.833 L7.7813,7.8744 L7.7969,7.9648 L7.7788,8.0346 L7.7297,8.0836 L7.6755,8.1585 L7.6342,8.218 L7.6574,8.2567 L7.6315,8.3187 L7.7013,8.3729 Z" id="Shape" sketch:type="MSShapeGroup"></path>
            <path d="M5.823,9.1763 L5.7045,9.1022 L5.7192,9.0429 L5.6229,8.8577 L5.5638,8.8503 L5.4896,8.5393 L5.2896,8.2355 L5.3119,8.0355 L5.4822,7.8207 L5.4082,7.6577 L5.4378,7.5466 L5.3192,7.3614 L5.0673,7.028 L5.1563,6.7021 L5.0599,6.554 L4.8081,6.5613 L4.7266,6.5244 L4.6229,6.3762 L4.1859,6.4576 L4.0896,6.5095 L3.9488,6.4503 L3.6006,6.5095 L3.2525,6.191 L3.0081,6.028 L2.8081,5.954 L2.9339,5.5465 L3.0525,5.265 L3.0154,4.9761 L3.0969,4.7835 L3.2155,4.6946 L3.2376,4.5762 L3.3932,4.4354 L3.6673,4.3021 L3.7488,4.0279 L3.897,3.9391 L4.0155,3.828 L4.1192,3.8872 L4.2452,3.9169 L4.4006,3.8501 L4.5785,3.7762 L4.8377,3.7762 L5.0155,3.8058 L5.1118,3.7539 L5.2229,3.7835 L5.1488,3.9983 L5.2155,4.0576 L5.4896,4.1613 L5.6008,4.2428 L5.8008,4.3095 L5.8896,4.2576 L5.8675,4.1613 L5.9193,4.0872 L6.1934,4.1465 L6.4971,4.1761 L6.623,4.1613 L6.7712,4.1909 L7.0379,4.6428 L7.1342,4.791 L7.223,4.8502 L7.3193,5.1095 L7.4305,5.1909 L7.5342,5.3613 L7.6749,5.4725 L7.8453,5.628 L7.9045,5.7095 L7.9786,5.6429 L8.0823,5.628 L8.149,5.5465 L8.3268,5.4205 L8.3268,5.7169 L8.1712,6.1317 L7.9045,6.5244 L7.6082,6.9021 L7.5416,7.1539 L7.5859,7.4429 L7.6008,7.7836 L7.4082,7.954 L7.2156,8.0726 L7.0971,8.191 L7.1268,8.3763 L7.0748,8.4726 L6.8526,8.5836 L6.823,8.7171 L6.6749,8.8355 L6.423,9.0429 L6.1934,9.154 L5.9638,9.2504 L5.823,9.1763 Z" id="Shape" sketch:type="MSShapeGroup"></path>
            <path id="Shape" sketch:type="MSShapeGroup" d="M5.4969,3.6578 L5.4078,3.6906 L5.3344,3.7016 L5.325,3.7406 L5.4297,3.7781 L5.4844,3.7969 L5.5234,3.7539 L5.5051,3.7125"></path>
            <path id="Shape" sketch:type="MSShapeGroup" d="M6.5188,3.8516 L6.5813,3.8297 L6.6391,3.7969 L6.7078,3.7406 L6.7078,3.7641 L6.6875,3.7891 L6.6781,3.8188 L6.6906,3.8328 L6.7078,3.8609 L6.6859,3.8797 L6.6516,3.8953 L6.6133,3.9203 L6.5188,3.9203 L6.4969,3.8953"></path>
            <path id="Shape" sketch:type="MSShapeGroup" d="M5.009975,3.4017 L4.9706,3.43710146 L4.99018333,3.47250292 L5.05268333,3.5017 L5.05268333,3.47457105 L5.0706,3.42457105"></path>
        </g>
    </g>
</svg>