<?xml version="1.0" encoding="UTF-8" standalone="no"?>
<svg width="13px" height="11px" viewBox="0 0 13 11" version="1.1" xmlns="http://www.w3.org/2000/svg" xmlns:xlink="http://www.w3.org/1999/xlink" xmlns:sketch="http://www.bohemiancoding.com/sketch/ns">
    <!-- Generator: Sketch 3.5.1 (25234) - http://www.bohemiancoding.com/sketch -->
    <title>Untitled</title>
    <desc>Created with Sketch.</desc>
    <defs></defs>
    <g id="Page-1" stroke="none" stroke-width="1" fill="none" fill-rule="evenodd" sketch:type="MSPage">
        <g id="list" sketch:type="MSLayerGroup" fill="#707070">
            <path d="M0.666666667,6.76190476 L3.49019608,6.76190476 L3.49019608,3.9047619 L0.666666667,3.9047619 L0.666666667,6.76190476 L0.666666667,6.76190476 Z M0.666666667,10.3333333 L3.49019608,10.3333333 L3.49019608,7.47619048 L0.666666667,7.47619048 L0.666666667,10.3333333 L0.666666667,10.3333333 Z M0.666666667,3.19047619 L3.49019608,3.19047619 L3.49019608,0.333333333 L0.666666667,0.333333333 L0.666666667,3.19047619 L0.666666667,3.19047619 Z M4.19607843,6.76190476 L12.6666667,6.76190476 L12.6666667,3.9047619 L4.19607843,3.9047619 L4.19607843,6.76190476 L4.19607843,6.76190476 Z M4.19607843,10.3333333 L12.6666667,10.3333333 L12.6666667,7.47619048 L4.19607843,7.47619048 L4.19607843,10.3333333 L4.19607843,10.3333333 Z M4.19607843,0.333333333 L4.19607843,3.19047619 L12.6666667,3.19047619 L12.6666667,0.333333333 L4.19607843,0.333333333 L4.19607843,0.333333333 Z" id="Shape" sketch:type="MSShapeGroup"></path>
        </g>
    </g>
</svg>