<?xml version="1.0" encoding="UTF-8" standalone="no"?>
<svg width="15px" height="15px" viewBox="0 0 15 15" version="1.1" xmlns="http://www.w3.org/2000/svg" xmlns:xlink="http://www.w3.org/1999/xlink" xmlns:sketch="http://www.bohemiancoding.com/sketch/ns">
    <!-- Generator: Sketch 3.5.1 (25234) - http://www.bohemiancoding.com/sketch -->
    <title>Untitled</title>
    <desc>Created with Sketch.</desc>
    <defs></defs>
    <g id="Page-1" stroke="none" stroke-width="1" fill="none" fill-rule="evenodd" sketch:type="MSPage">
        <g id="setup-icon" sketch:type="MSLayerGroup" fill="#FFFFFF">
            <g id="noun_186685_cc" sketch:type="MSShapeGroup">
                <path d="M13.6058333,5.91666667 L12.815625,5.91666667 C12.6902083,5.45458333 12.5066667,5.016875 12.2745833,4.61041667 L12.8333333,4.05166667 C13.2947917,3.59020833 13.2947917,2.84208333 12.8333333,2.380625 L12.415625,1.96291667 C11.9541667,1.50166667 11.2060417,1.50166667 10.7445833,1.96291667 L10.1902083,2.51770833 C9.78,2.28166667 9.33770833,2.09541667 8.87041667,1.96854167 L8.87041667,1.18145833 C8.87041667,0.529166667 8.34145833,-8.79296636e-14 7.68895833,-8.79296636e-14 L7.09833333,-8.79296636e-14 C6.445625,-8.79296636e-14 5.91666667,0.529166667 5.91666667,1.18145833 L5.91666667,1.970625 C5.451875,2.0975 5.01145833,2.28354167 4.60333333,2.51854167 L4.04791667,1.963125 C3.58645833,1.501875 2.83833333,1.501875 2.376875,1.963125 L1.95895833,2.38083333 C1.49770833,2.84229167 1.49770833,3.59041667 1.95895833,4.051875 L2.51895833,4.61145833 C2.28729167,5.01791667 2.10375,5.45520833 1.97854167,5.916875 L1.18125,5.916875 C0.52875,5.916875 4.4408921e-15,6.44604167 4.4408921e-15,7.098125 L4.4408921e-15,7.68875 C4.4408921e-15,8.34145833 0.52875,8.87 1.18125,8.87 L1.98229167,8.87 C2.10875,9.33354167 2.29416667,9.77208333 2.528125,10.179375 L1.95916667,10.748125 C1.49791667,11.2095833 1.49791667,11.9579167 1.95916667,12.4189583 L2.37708333,12.836875 C2.83854167,13.2983333 3.58666667,13.2983333 4.048125,12.836875 L4.619375,12.265625 C5.02333333,12.49625 5.45770833,12.679375 5.916875,12.8047917 L5.916875,13.605625 C5.916875,14.2583333 6.44583333,14.786875 7.09854167,14.786875 L7.68916667,14.786875 C8.34166667,14.786875 8.870625,14.2583333 8.870625,13.605625 L8.870625,12.8064583 C9.331875,12.6814583 9.76854167,12.498125 10.1741667,12.2664583 L10.7447917,12.836875 C11.20625,13.2983333 11.954375,13.2983333 12.4158333,12.836875 L12.8335417,12.4189583 C13.295,11.9579167 13.295,11.2095833 12.8335417,10.748125 L12.2658333,10.1804167 C12.5,9.77270833 12.685625,9.33375 12.8122917,8.86979167 L13.6060417,8.86979167 C14.2585417,8.86979167 14.7877083,8.34125 14.7877083,7.68854167 L14.7877083,7.09791667 C14.7875,6.445625 14.2583333,5.91666667 13.6058333,5.91666667 L13.6058333,5.91666667 Z M7.39395833,9.57291667 C6.191875,9.57291667 5.21416667,8.59520833 5.21416667,7.393125 C5.21416667,6.19125 6.191875,5.21354167 7.39395833,5.21354167 C8.59604167,5.21354167 9.57375,6.19145833 9.57375,7.393125 C9.57375,8.59520833 8.59604167,9.57291667 7.39395833,9.57291667 L7.39395833,9.57291667 Z" id="Shape"></path>
            </g>
        </g>
    </g>
</svg>