<?xml version="1.0" encoding="UTF-8" standalone="no"?>
<svg width="28px" height="32px" viewBox="0 0 28 32" version="1.1" xmlns="http://www.w3.org/2000/svg" xmlns:xlink="http://www.w3.org/1999/xlink" xmlns:sketch="http://www.bohemiancoding.com/sketch/ns">
    <!-- Generator: Sketch 3.5.1 (25234) - http://www.bohemiancoding.com/sketch -->
    <title>Untitled</title>
    <desc>Created with Sketch.</desc>
    <defs></defs>
    <g id="Page-1" stroke="none" stroke-width="1" fill="none" fill-rule="evenodd" sketch:type="MSPage">
        <g id="excle-icon" sketch:type="MSLayerGroup" fill="#333333">
            <path d="M23.3333333,32 L0.666666667,32 C0.298666667,32 0,31.7 0,31.3333333 L0,8.10933333 C0,7.94533333 0.06,7.788 0.169333333,7.66533333 L6.836,0.222666667 C6.96266667,0.0813333333 7.14266667,-1.77635684e-15 7.33333333,-1.77635684e-15 L23.3333333,-1.77635684e-15 C23.7,-1.77635684e-15 24,0.298666667 24,0.666666667 L24,16 C24,16.368 23.7,16.6666667 23.3333333,16.6666667 C22.9666667,16.6666667 22.6666667,16.368 22.6666667,16 L22.6666667,1.33333333 L7.632,1.33333333 L1.33333333,8.364 L1.33333333,30.6666667 L22.6666667,30.6666667 L22.6666667,28 C22.6666667,27.6333333 22.9666667,27.3333333 23.3333333,27.3333333 C23.7,27.3333333 24,27.6333333 24,28 L24,31.3333333 C24,31.7 23.7,32 23.3333333,32 L23.3333333,32 Z" id="Shape" sketch:type="MSShapeGroup"></path>
            <path d="M7.33333333,9.33333333 L1.33333333,9.33333333 C0.965333333,9.33333333 0.666666667,9.03466667 0.666666667,8.66666667 C0.666666667,8.29866667 0.965333333,8 1.33333333,8 L6.66666667,8 L6.66666667,1.33333333 C6.66666667,0.965333333 6.96533333,0.666666667 7.33333333,0.666666667 C7.70133333,0.666666667 8,0.965333333 8,1.33333333 L8,8.66666667 C8,9.03466667 7.70133333,9.33333333 7.33333333,9.33333333 L7.33333333,9.33333333 Z" id="Shape" sketch:type="MSShapeGroup"></path>
            <path d="M26,28 L10,28 C8.89733333,28 8,27.1026667 8,26 L8,18 C8,16.8973333 8.89733333,16 10,16 L26,16 C27.1026667,16 28,16.8973333 28,18 L28,26 C28,27.1026667 27.1026667,28 26,28 L26,28 Z M10,17.3333333 C9.632,17.3333333 9.33333333,17.6333333 9.33333333,18 L9.33333333,26 C9.33333333,26.3666667 9.632,26.6666667 10,26.6666667 L26,26.6666667 C26.3666667,26.6666667 26.6666667,26.3666667 26.6666667,26 L26.6666667,18 C26.6666667,17.6333333 26.3666667,17.3333333 26,17.3333333 L10,17.3333333 L10,17.3333333 Z" id="Shape" sketch:type="MSShapeGroup"></path>
        </g>
        <text id="XLS" sketch:type="MSTextLayer" font-family="PT Sans" font-size="9" font-weight="bold" fill="#3B7FC4">
            <tspan x="10.5" y="24">XLS</tspan>
        </text>
    </g>
</svg>