<?xml version="1.0" encoding="UTF-8" standalone="no"?>
<svg width="11px" height="12px" viewBox="0 0 11 12" version="1.1" xmlns="http://www.w3.org/2000/svg" xmlns:xlink="http://www.w3.org/1999/xlink" xmlns:sketch="http://www.bohemiancoding.com/sketch/ns">
    <!-- Generator: Sketch 3.5.1 (25234) - http://www.bohemiancoding.com/sketch -->
    <title>Untitled</title>
    <desc>Created with Sketch.</desc>
    <defs></defs>
    <g id="Page-1" stroke="none" stroke-width="1" fill="none" fill-rule="evenodd" sketch:type="MSPage">
        <path d="M8.118,6.036 L7.482,5.4 L4.554,8.328 L3.282,7.056 L2.646,7.692 L4.554,9.6 L8.118,6.036 L8.118,6.036 Z M9.6,1.2 L9,1.2 L9,0 L7.8,0 L7.8,1.2 L3,1.2 L3,0 L1.8,0 L1.8,1.2 L1.2,1.2 C0.534,1.2 0.006,1.74 0.006,2.4 L0,10.8 C0,11.46 0.534,12 1.2,12 L9.6,12 C10.26,12 10.8,11.46 10.8,10.8 L10.8,2.4 C10.8,1.74 10.26,1.2 9.6,1.2 L9.6,1.2 Z M9.6,10.8 L1.2,10.8 L1.2,4.2 L9.6,4.2 L9.6,10.8 L9.6,10.8 Z" id="Shape" fill="#BABABA" sketch:type="MSShapeGroup"></path>
    </g>
</svg>