<?xml version="1.0" encoding="UTF-8" standalone="no"?>
<svg width="64px" height="76px" viewBox="0 0 64 76" version="1.1" xmlns="http://www.w3.org/2000/svg" xmlns:xlink="http://www.w3.org/1999/xlink" xmlns:sketch="http://www.bohemiancoding.com/sketch/ns">
    <!-- Generator: Sketch 3.4.3 (16618) - http://www.bohemiancoding.com/sketch -->
    <title>icon copy</title>
    <desc>Created with Sketch.</desc>
    <defs></defs>
    <g id="Page-1" stroke="none" stroke-width="1" fill="none" fill-rule="evenodd" sketch:type="MSPage">
        <g id="icon" sketch:type="MSLayerGroup" fill="#999999">
            <path d="M60.3,38.5 L4.2,38.5 C2.3,38.5 0.8,37 0.8,35.1 C0.8,33.2 2.3,31.7 4.2,31.7 L60.3,31.7 C62.2,31.7 63.7,33.2 63.7,35.1 C63.7,37 62.2,38.5 60.3,38.5 L60.3,38.5 Z" id="Shape" sketch:type="MSShapeGroup"></path>
            <path d="M60.3,50.7 L4.2,50.7 C2.3,50.7 0.8,49.2 0.8,47.3 C0.8,45.4 2.3,43.9 4.2,43.9 L60.3,43.9 C62.2,43.9 63.7,45.4 63.7,47.3 C63.7,49.2 62.2,50.7 60.3,50.7 L60.3,50.7 Z" id="Shape" sketch:type="MSShapeGroup"></path>
            <path d="M60.3,62.9 L4.2,62.9 C2.3,62.9 0.8,61.4 0.8,59.5 C0.8,57.6 2.3,56.1 4.2,56.1 L60.3,56.1 C62.2,56.1 63.7,57.6 63.7,59.5 C63.7,61.4 62.2,62.9 60.3,62.9 L60.3,62.9 Z" id="Shape" sketch:type="MSShapeGroup"></path>
            <path d="M60.3,75.1 L4.2,75.1 C2.3,75.1 0.8,73.6 0.8,71.7 C0.8,69.8 2.3,68.3 4.2,68.3 L60.3,68.3 C62.2,68.3 63.7,69.8 63.7,71.7 C63.7,73.6 62.2,75.1 60.3,75.1 L60.3,75.1 Z" id="Shape" sketch:type="MSShapeGroup"></path>
            <path d="M52.3,27.6 C50.4,27.6 48.9,26.1 48.9,24.2 C48.9,14.7 41.2,7 31.7,7 C22.2,7 14.5,14.7 14.5,24.2 C14.5,26.1 13,27.6 11.1,27.6 C9.2,27.6 7.7,26.1 7.7,24.2 C7.7,11 18.4,0.2 31.7,0.2 C45,0.2 55.7,10.9 55.7,24.2 C55.7,26.1 54.1,27.6 52.3,27.6 L52.3,27.6 Z" id="Shape" sketch:type="MSShapeGroup"></path>
        </g>
    </g>
</svg>