<?xml version="1.0" encoding="UTF-8" standalone="no"?>
<svg width="14px" height="14px" viewBox="0 0 14 14" version="1.1" xmlns="http://www.w3.org/2000/svg" xmlns:xlink="http://www.w3.org/1999/xlink" xmlns:sketch="http://www.bohemiancoding.com/sketch/ns">
    <!-- Generator: Sketch 3.5.1 (25234) - http://www.bohemiancoding.com/sketch -->
    <title>Untitled</title>
    <desc>Created with Sketch.</desc>
    <defs></defs>
    <g id="Page-1" stroke="none" stroke-width="1" fill="none" fill-rule="evenodd" sketch:type="MSPage">
        <g id="noun_175055_cc" sketch:type="MSLayerGroup" fill="#FFFFFF">
            <path d="M13.3711657,-5.41788836e-14 L0.656619743,-5.41788836e-14 C0.298463519,-5.41788836e-14 0,0.298463519 0,0.656619743 L0,10.2671451 C0,10.6253013 0.298463519,10.9237648 0.656619743,10.9237648 L4.23818198,10.9237648 L3.52186953,12.9831631 C3.43233047,13.2219339 3.55171588,13.4607047 3.7904867,13.5502438 C3.8501794,13.5800901 3.88002575,13.5800901 3.93971846,13.5800901 C4.11879657,13.5800901 4.29787468,13.4607047 4.35756738,13.2816266 L5.16341889,10.9237648 L8.83452018,10.9237648 L9.64037168,13.2816266 C9.70006438,13.4607047 9.87914249,13.5800901 10.0582206,13.5800901 C10.1179133,13.5800901 10.1477597,13.5800901 10.2074524,13.5502438 C10.4462232,13.4607047 10.5656086,13.2219339 10.4760695,12.9831631 L9.75975709,10.9237648 L13.3413193,10.9237648 C13.6994755,10.9237648 13.9979391,10.6253013 13.9979391,10.2671451 L13.9979391,0.656619743 C14.0277854,0.298463519 13.7293219,-5.41788836e-14 13.3711657,-5.41788836e-14 L13.3711657,-5.41788836e-14 Z M12.8637777,3.07417425 C12.7742386,3.40248412 12.5653142,3.70094764 12.2668507,3.8501794 C12.0280798,3.96956481 11.789309,3.99941116 11.5803846,3.99941116 C11.5206919,3.99941116 11.4609991,4.02925751 11.4013064,4.08895022 L8.92405923,7.6406661 C8.89421288,7.7003588 8.89421288,7.76005151 8.92405923,7.81974421 C9.01359829,7.96897597 9.04344464,8.14805408 9.04344464,8.35697855 C9.04344464,9.10313734 8.35697855,9.70006438 7.58097339,9.52098627 C7.13327812,9.43144722 6.80496824,9.07329099 6.68558284,8.62559571 C6.59604378,8.26743949 6.68558284,7.93912962 6.86466095,7.67051245 C6.8945073,7.61081975 6.8945073,7.55112704 6.86466095,7.49143434 L5.76034593,5.31265065 C5.73049957,5.25295794 5.64096052,5.19326524 5.58126781,5.19326524 C5.52157511,5.19326524 5.43203605,5.19326524 5.37234335,5.16341889 C5.31265065,5.13357253 5.22311159,5.16341889 5.19326524,5.22311159 L3.49202318,7.13327812 C3.46217683,7.19297082 3.43233047,7.25266352 3.46217683,7.31235623 C3.55171588,7.55112704 3.55171588,7.81974421 3.46217683,8.11820773 C3.31294507,8.50621031 2.98463519,8.80467382 2.56678627,8.89421288 C1.79078112,9.04344464 1.10431502,8.4465176 1.13416137,7.7003588 C1.13416137,7.37204893 1.28339313,7.07358541 1.5520103,6.86466095 C1.96985923,6.50650472 2.2981691,6.47665837 2.62647897,6.56619743 C2.68617168,6.59604378 2.74586438,6.56619743 2.80555708,6.50650472 L4.50679914,4.5963382 C4.5366455,4.5366455 4.56649185,4.47695279 4.5366455,4.41726009 C4.47695279,4.29787468 4.47695279,4.14864292 4.47695279,4.02925751 C4.47695279,3.28309871 5.16341889,2.68617168 5.93942404,2.86524979 C6.38711932,2.95478884 6.71542919,3.31294507 6.8348146,3.76064035 C6.92435365,4.11879657 6.8348146,4.44710644 6.65573648,4.71572361 C6.62589013,4.77541631 6.62589013,4.83510902 6.65573648,4.89480172 L7.78989786,7.13327812 C7.81974421,7.16312447 7.84959056,7.19297082 7.87943691,7.19297082 L8.05851503,7.19297082 C8.08836138,7.19297082 8.14805408,7.19297082 8.14805408,7.13327812 L10.6551476,3.55171588 C10.684994,3.49202318 10.684994,3.43233047 10.6551476,3.37263777 C10.5357622,3.1040206 10.4760695,2.80555708 10.5656086,2.47724721 C10.684994,2.02955193 11.0133039,1.73108841 11.4311528,1.64154936 C12.296697,1.43262489 13.0727022,2.20863004 12.8637777,3.07417425 L12.8637777,3.07417425 Z" id="Shape" sketch:type="MSShapeGroup"></path>
        </g>
    </g>
</svg>