<?xml version="1.0" encoding="UTF-8" standalone="no"?>
<svg width="33px" height="33px" viewBox="0 0 33 33" version="1.1" xmlns="http://www.w3.org/2000/svg" xmlns:xlink="http://www.w3.org/1999/xlink" xmlns:sketch="http://www.bohemiancoding.com/sketch/ns">
    <!-- Generator: Sketch 3.5.1 (25234) - http://www.bohemiancoding.com/sketch -->
    <title>Untitled</title>
    <desc>Created with Sketch.</desc>
    <defs></defs>
    <g id="Page-1" stroke="none" stroke-width="1" fill="none" fill-rule="evenodd" sketch:type="MSPage">
        <g id="subscriber-add-icon" sketch:type="MSLayerGroup">
            <g id="Group" transform="translate(0.132414, 0.000000)" sketch:type="MSShapeGroup">
                <circle id="Oval" cx="16.2427586" cy="8.2537931" r="7.01793103"></circle>
                <path d="M9.22482759,8.2537931 C9.22482759,4.37777655 12.3667421,1.23586207 16.2427586,1.23586207 C20.1187752,1.23586207 23.2606897,4.37777655 23.2606897,8.2537931 C23.2606897,12.1298097 20.1187752,15.2717241 16.2427586,15.2717241 C17.47968,15.2717241 18.6819972,15.4175559 19.8377048,15.6852083 C22.5950897,14.3487117 24.4965517,11.523531 24.4965517,8.2537931 C24.4965517,3.69522759 20.8013241,0 16.2427586,0 C11.6841931,0 7.98896552,3.69522759 7.98896552,8.2537931 C7.98896552,11.523531 9.89042759,14.3487117 12.6478124,15.6852083 C13.80352,15.4175559 15.0058372,15.2717241 16.2427586,15.2717241 C12.3667421,15.2717241 9.22482759,12.1298097 9.22482759,8.2537931 L9.22482759,8.2537931 Z" id="Shape" fill="#333333"></path>
                <path d="M19.8377048,15.6852083 C18.7508524,16.2116855 17.5315862,16.5075862 16.2427586,16.5075862" id="Shape" fill="#333333"></path>
                <path d="M0.353456552,31.143371 C0.363343448,30.8107476 0.634526897,30.5434483 0.969622069,30.5434483 C1.31072,30.5434483 1.5875531,30.8202814 1.5875531,31.1613793 L1.58896552,31.1613793 C1.58896552,23.0682483 8.14962759,16.5075862 16.2427586,16.5075862 C14.953931,16.5075862 13.7346648,16.2116855 12.6478124,15.6852083 C5.61046069,17.3137214 0.361931034,23.6127338 0.353456552,31.143371 L0.353456552,31.143371 Z" id="Shape" fill="#333333"></path>
                <path d="M16.2427586,15.2717241 C15.0058372,15.2717241 13.80352,15.4175559 12.6478124,15.6852083 C13.7346648,16.2116855 14.953931,16.5075862 16.2427586,16.5075862 C17.5315862,16.5075862 18.7508524,16.2116855 19.8377048,15.6852083 C18.6819972,15.4175559 17.47968,15.2717241 16.2427586,15.2717241 L16.2427586,15.2717241 Z" id="Shape" fill="#333333"></path>
                <path d="M0.353456552,31.143371 C0.353456552,31.1493738 0.351691034,31.1550234 0.351691034,31.1613793 C0.351691034,31.5024772 0.628524138,31.7793103 0.969622069,31.7793103 C1.31072,31.7793103 1.5875531,31.5024772 1.5875531,31.1613793 L0.353103448,31.1613793 C0.353103448,31.1553766 0.353456552,31.1493738 0.353456552,31.143371 L0.353456552,31.143371 Z" id="Shape" fill="#333333"></path>
                <path d="M0.969622069,30.5434483 C0.634526897,30.5434483 0.363343448,30.8107476 0.353456552,31.143371 C0.353456552,31.1493738 0.353103448,31.1553766 0.353103448,31.1613793 L1.5875531,31.1613793 C1.5875531,30.8202814 1.3110731,30.5434483 0.969622069,30.5434483 L0.969622069,30.5434483 Z" id="Shape" fill="#333333"></path>
            </g>
            <g id="Group" transform="translate(21.671724, 25.776552)" fill="#3B7FC4" sketch:type="MSShapeGroup">
                <path d="M9.98682483,1.32413793 L0.629583448,1.32413793 L0.629583448,0.0882758621 L9.98682483,0.0882758621 L9.98682483,1.32413793 L9.98682483,1.32413793 Z" id="Shape"></path>
                <ellipse id="Oval" cx="9.98647172" cy="0.706206897" rx="0.617931034" ry="0.617931034"></ellipse>
                <ellipse id="Oval" cx="0.629230345" cy="0.706206897" rx="0.617931034" ry="0.617931034"></ellipse>
            </g>
            <g id="Group" transform="translate(26.262069, 21.186207)" fill="#3B7FC4" sketch:type="MSShapeGroup">
                <path d="M0.0995751724,9.97517241 L0.0995751724,0.617931034 L1.33543724,0.617931034 L1.33543724,9.97517241 L0.0995751724,9.97517241 L0.0995751724,9.97517241 Z" id="Shape"></path>
                <ellipse id="Oval" cx="0.717506207" cy="9.97517241" rx="0.617931034" ry="0.617931034"></ellipse>
                <ellipse id="Oval" cx="0.717506207" cy="0.617931034" rx="0.617931034" ry="0.617931034"></ellipse>
            </g>
        </g>
    </g>
</svg>