<?xml version="1.0" encoding="UTF-8" standalone="no"?>
<svg width="14px" height="15px" viewBox="0 0 14 15" version="1.1" xmlns="http://www.w3.org/2000/svg" xmlns:xlink="http://www.w3.org/1999/xlink" xmlns:sketch="http://www.bohemiancoding.com/sketch/ns">
    <!-- Generator: Sketch 3.5.1 (25234) - http://www.bohemiancoding.com/sketch -->
    <title>Untitled</title>
    <desc>Created with Sketch.</desc>
    <defs></defs>
    <g id="Page-1" stroke="none" stroke-width="1" fill="none" fill-rule="evenodd" sketch:type="MSPage">
        <g id="icon" sketch:type="MSLayerGroup" fill="#FFFFFF">
            <g id="Group" transform="translate(0.000000, 0.637820)" sketch:type="MSShapeGroup">
                <g id="icon">
                    <path d="M12.6191897,-4.35207426e-14 L7.57991379,-4.35207426e-14 C7.35079655,-4.35207426e-14 7.03376897,0.131503448 6.87141724,0.29342069 L0.121437931,7.04325517 C-0.0404793103,7.20517241 -0.0404793103,7.46788966 0.121437931,7.63024138 L5.40416897,12.9122483 C5.56608621,13.0743103 5.82880345,13.0743103 5.99086552,12.9122483 L12.7407,6.16284828 C12.9027621,6.00049655 13.0341207,5.68332414 13.0341207,5.4542069 L13.0344103,0.415075862 C13.0341207,0.185958621 12.8484517,-4.35207426e-14 12.6191897,-4.35207426e-14 L12.6191897,-4.35207426e-14 Z M8.75432069,4.81088276 L8.33518966,5.23015862 C8.68871379,5.7177931 8.77923103,6.26306897 8.57227241,6.72724138 C8.55112759,6.77488966 8.49363103,6.79183448 8.4483,6.76735862 L7.78658276,6.41238621 C7.74096207,6.38791034 7.72488621,6.33084828 7.73618276,6.28030345 C7.77687931,6.09130345 7.66666552,5.84741379 7.42697586,5.60743448 C7.30213448,5.48288276 6.87199655,5.10024828 6.5640931,5.40829655 C6.25604483,5.7162 6.63853448,6.14662759 6.76294138,6.27146897 C7.47766552,6.98575862 7.55761034,7.86602069 6.96193448,8.46169655 C6.44374138,8.9796 5.70975517,8.98582759 5.05745172,8.5076069 L4.63875517,8.92615862 C4.60225862,8.9628 4.54287931,8.9628 4.50623793,8.92615862 L4.10796207,8.52788276 C4.07132069,8.49138621 4.07103103,8.43171724 4.10796207,8.39507586 L4.52723793,7.9758 C4.17356897,7.48816552 4.08305172,6.94274483 4.28986552,6.47842759 C4.31101034,6.43150345 4.3685069,6.41412414 4.41412759,6.4386 L5.07584483,6.79371724 C5.12132069,6.81790345 5.13739655,6.87525517 5.1261,6.92594483 C5.08554828,7.11494483 5.19547241,7.35854483 5.4353069,7.59852414 C5.55985862,7.72307586 5.99014138,8.10571034 6.29818966,7.79766207 C6.60623793,7.48990345 6.2238931,7.05918621 6.09934138,6.93463448 C5.38461724,6.2202 5.30481724,5.34008276 5.90020345,4.7444069 C6.41839655,4.22621379 7.15223793,4.22013103 7.80483103,4.6982069 L8.22323793,4.2798 C8.25987931,4.24330345 8.31954828,4.24330345 8.35604483,4.2798 L8.75432069,4.67807586 C8.79096207,4.7150069 8.79096207,4.77438621 8.75432069,4.81088276 L8.75432069,4.81088276 Z M11.4817138,2.84962759 C11.1235552,3.20807586 10.5427966,3.20807586 10.1846379,2.84962759 C9.82647931,2.49146897 9.82647931,1.91056552 10.1846379,1.5524069 C10.5427966,1.19424828 11.1235552,1.19424828 11.4817138,1.5524069 C11.8401621,1.91042069 11.8398724,2.49146897 11.4817138,2.84962759 L11.4817138,2.84962759 Z" id="Shape"></path>
                </g>
            </g>
        </g>
    </g>
</svg>