<?xml version="1.0" encoding="UTF-8" standalone="no"?>
<svg width="10px" height="9px" viewBox="0 0 10 9" version="1.1" xmlns="http://www.w3.org/2000/svg" xmlns:xlink="http://www.w3.org/1999/xlink" xmlns:sketch="http://www.bohemiancoding.com/sketch/ns">
    <!-- Generator: Sketch 3.5.1 (25234) - http://www.bohemiancoding.com/sketch -->
    <title>Untitled</title>
    <desc>Created with Sketch.</desc>
    <defs></defs>
    <g id="Page-1" stroke="none" stroke-width="1" fill="none" fill-rule="evenodd" sketch:type="MSPage">
        <path d="M8.5,2.5 L1.5,2.5 C0.67,2.5 0,3.17 0,4 L0,7 L2,7 L2,9 L8,9 L8,7 L10,7 L10,4 C10,3.17 9.33,2.5 8.5,2.5 L8.5,2.5 Z M7,8 L3,8 L3,5.5 L7,5.5 L7,8 L7,8 Z M8.5,4.5 C8.225,4.5 8,4.275 8,4 C8,3.725 8.225,3.5 8.5,3.5 C8.775,3.5 9,3.725 9,4 C9,4.275 8.775,4.5 8.5,4.5 L8.5,4.5 Z M8,0 L2,0 L2,2 L8,2 L8,0 L8,0 Z" id="Shape" fill="#707070" sketch:type="MSShapeGroup"></path>
    </g>
</svg>