<?xml version="1.0" encoding="UTF-8" standalone="no"?>
<svg width="14px" height="14px" viewBox="0 0 14 14" version="1.1" xmlns="http://www.w3.org/2000/svg" xmlns:xlink="http://www.w3.org/1999/xlink" xmlns:sketch="http://www.bohemiancoding.com/sketch/ns">
    <!-- Generator: Sketch 3.4.4 (17249) - http://www.bohemiancoding.com/sketch -->
    <title>Untitled 2</title>
    <desc>Created with Sketch.</desc>
    <defs></defs>
    <g id="Page-1" stroke="none" stroke-width="1" fill="none" fill-rule="evenodd" sketch:type="MSPage">
        <g id="noun_61833_cc" sketch:type="MSLayerGroup" fill="#000000">
            <path d="M7.02734375,13.8156308 C3.20775,13.8156308 0.10040625,10.7560923 0.10040625,6.99526154 C0.10040625,3.23443077 3.20775,0.174892308 7.02734375,0.174892308 C10.8467188,0.174892308 13.9540625,3.23443077 13.9540625,6.99526154 C13.9540625,10.7560923 10.8467187,13.8156308 7.02734375,13.8156308 L7.02734375,13.8156308 Z M7.02734375,1.03643077 C3.6903125,1.03643077 0.97540625,3.70956923 0.97540625,6.99526154 C0.97540625,10.2809538 3.6903125,12.9540923 7.02734375,12.9540923 C10.364375,12.9540923 13.0790625,10.2807385 13.0790625,6.99526154 C13.0790625,3.70978462 10.364375,1.03643077 7.02734375,1.03643077 L7.02734375,1.03643077 Z" id="Shape" sketch:type="MSShapeGroup"></path>
            <path d="M5.369875,5.33356923 C5.369875,5.81172308 5.03715625,6.19963077 4.627,6.19963077 C4.21465625,6.19963077 3.88128125,5.81150769 3.88128125,5.33356923 C3.88128125,4.85563077 4.21465625,4.46664615 4.627,4.46664615 C5.03715625,4.46643077 5.369875,4.85541538 5.369875,5.33356923 L5.369875,5.33356923 Z" id="Shape" sketch:type="MSShapeGroup"></path>
            <path d="M10.1742812,5.33356923 C10.1742812,5.81172308 9.84178125,6.19963077 9.43140625,6.19963077 C9.01884375,6.19963077 8.6856875,5.81150769 8.6856875,5.33356923 C8.6856875,4.85563077 9.01884375,4.46664615 9.43140625,4.46664615 C9.84178125,4.46643077 10.1742812,4.85541538 10.1742812,5.33356923 L10.1742812,5.33356923 Z" id="Shape" sketch:type="MSShapeGroup"></path>
            <path d="M2.47646875,7.39932308 C2.47646875,7.39932308 4.0018125,7.81135385 6.94553125,7.81135385 C9.8914375,7.81135385 11.5200313,7.39932308 11.5200313,7.39932308 C11.5200313,7.39932308 11.1271563,11.5633538 6.94553125,11.5633538 C3.01525,11.5635692 2.47646875,7.39932308 2.47646875,7.39932308 L2.47646875,7.39932308 Z" id="Shape" sketch:type="MSShapeGroup"></path>
        </g>
    </g>
</svg>