<?xml version="1.0" encoding="UTF-8" standalone="no"?>
<svg width="11px" height="12px" viewBox="0 0 11 12" version="1.1" xmlns="http://www.w3.org/2000/svg" xmlns:xlink="http://www.w3.org/1999/xlink" xmlns:sketch="http://www.bohemiancoding.com/sketch/ns">
    <!-- Generator: Sketch 3.5.1 (25234) - http://www.bohemiancoding.com/sketch -->
    <title>Untitled</title>
    <desc>Created with Sketch.</desc>
    <defs></defs>
    <g id="Page-1" stroke="none" stroke-width="1" fill="none" fill-rule="evenodd" sketch:type="MSPage">
        <g id="ic_date_range_black_24px" sketch:type="MSLayerGroup" fill="#BABABA">
            <path d="M3.66666667,5.4 L2.44444444,5.4 L2.44444444,6.6 L3.66666667,6.6 L3.66666667,5.4 L3.66666667,5.4 Z M6.11111111,5.4 L4.88888889,5.4 L4.88888889,6.6 L6.11111111,6.6 L6.11111111,5.4 L6.11111111,5.4 Z M8.55555556,5.4 L7.33333333,5.4 L7.33333333,6.6 L8.55555556,6.6 L8.55555556,5.4 L8.55555556,5.4 Z M9.77777778,1.2 L9.16666667,1.2 L9.16666667,0 L7.94444444,0 L7.94444444,1.2 L3.05555556,1.2 L3.05555556,0 L1.83333333,0 L1.83333333,1.2 L1.22222222,1.2 C0.543888889,1.2 0.00611111111,1.74 0.00611111111,2.4 L0,10.8 C0,11.46 0.543888889,12 1.22222222,12 L9.77777778,12 C10.45,12 11,11.46 11,10.8 L11,2.4 C11,1.74 10.45,1.2 9.77777778,1.2 L9.77777778,1.2 Z M9.77777778,10.8 L1.22222222,10.8 L1.22222222,4.2 L9.77777778,4.2 L9.77777778,10.8 L9.77777778,10.8 Z" id="Shape" sketch:type="MSShapeGroup"></path>
        </g>
    </g>
</svg>