<?xml version="1.0" encoding="UTF-8" standalone="no"?>
<svg width="150px" height="25px" viewBox="0 0 150 25" version="1.1" xmlns="http://www.w3.org/2000/svg" xmlns:xlink="http://www.w3.org/1999/xlink" xmlns:sketch="http://www.bohemiancoding.com/sketch/ns">
    <!-- Generator: Sketch 3.4.3 (16618) - http://www.bohemiancoding.com/sketch -->
    <title>Untitled</title>
    <desc>Created with Sketch.</desc>
    <defs></defs>
    <g id="Page-1" stroke="none" stroke-width="1" fill="none" fill-rule="evenodd" sketch:type="MSPage">
        <g id="Group" sketch:type="MSLayerGroup">
            <path d="M135.303391,15.3123141 C135.303391,9.61927424 132.144557,6.87091017 127.709697,6.87091017 C122.757287,6.87091017 119.143367,10.6454491 119.143367,15.8030934 C119.143367,21.5675193 122.730518,24.7709697 127.888162,24.7709697 C132.760262,24.7709697 134.955384,22.2010708 134.955384,22.2010708 L134.107674,18.9440809 C134.107674,18.9440809 132.412255,20.2111838 129.110648,20.2111838 C125.023795,20.2111838 125.005949,16.6864961 125.005949,16.6864961 L135.276621,16.6864961 C135.303391,16.1243308 135.303391,15.7138608 135.303391,15.3123141 L135.303391,15.3123141 Z M124.970256,13.5187388 C125.130874,11.7965497 125.889352,10.5562165 127.504462,10.5562165 C128.985723,10.5562165 129.806663,11.7340869 129.940512,13.5187388 L124.970256,13.5187388 L124.970256,13.5187388 Z" id="Shape" fill="#EF4123" sketch:type="MSShapeGroup"></path>
            <path d="M82.2903034,15.3123141 C82.2903034,9.61927424 79.1314694,6.87091017 74.6966092,6.87091017 C69.7441999,6.87091017 66.1302796,10.6454491 66.1302796,15.8030934 C66.1302796,21.5675193 69.7174301,24.7709697 74.8750744,24.7709697 C79.7471743,24.7709697 81.9422963,22.2010708 81.9422963,22.2010708 L81.0945866,18.9440809 C81.0945866,18.9440809 79.3991672,20.2111838 76.097561,20.2111838 C72.0107079,20.2111838 71.9928614,16.6864961 71.9928614,16.6864961 L82.2635336,16.6864961 C82.2903034,16.1243308 82.2903034,15.7138608 82.2903034,15.3123141 L82.2903034,15.3123141 Z M71.9660916,13.5187388 C72.1267103,11.7965497 72.8851874,10.5562165 74.5002974,10.5562165 C75.9815586,10.5562165 76.8024985,11.7340869 76.9363474,13.5187388 L71.9660916,13.5187388 L71.9660916,13.5187388 Z" id="Shape" fill="#EF4123" sketch:type="MSShapeGroup"></path>
            <path d="M94.7204045,6.87983343 C90.856633,6.87983343 89.6876859,9.36942296 89.6876859,9.36942296 L89.4021416,7.29030339 L83.9143367,7.29030339 L83.9143367,24.4140393 L89.7412255,24.4140393 L89.7412255,14.1255205 C89.7412255,11.2076145 93.4711481,11.1629982 93.4711481,14.1969066 C93.4533016,18.7209994 93.4622249,24.4140393 93.4622249,24.4140393 L99.1017252,24.4140393 C99.1017252,24.4140393 99.2534206,19.8810232 99.2534206,13.0814991 C99.2712671,9.60142772 97.5312314,6.87983343 94.7204045,6.87983343 L94.7204045,6.87983343 L94.7204045,6.87983343 Z" id="Shape" fill="#EF4123" sketch:type="MSShapeGroup"></path>
            <path d="M32.6412849,6.87983343 C28.7864366,6.87983343 27.6085663,9.36942296 27.6085663,9.36942296 L27.3319453,7.29030339 L21.8441404,7.29030339 L21.8441404,24.4140393 L27.6710291,24.4140393 L27.6710291,14.1255205 C27.6710291,11.2076145 31.4009518,11.1629982 31.4009518,14.1969066 C31.3831053,18.7209994 31.3920286,24.4140393 31.3920286,24.4140393 L37.0315289,24.4140393 C37.0315289,24.4140393 37.1832243,19.8810232 37.1832243,13.0814991 C37.1921475,9.60142772 35.4521118,6.87983343 32.6412849,6.87983343 L32.6412849,6.87983343 L32.6412849,6.87983343 Z" id="Shape" fill="#EB9D31" sketch:type="MSShapeGroup"></path>
            <path d="M145.814991,6.90660321 C144.574658,7.03152885 143.07555,8.04878049 142.620464,9.33372992 L142.245687,7.27245687 L136.936347,7.27245687 L136.936347,24.3961927 L142.807852,24.3961927 L142.807852,15.41047 C142.807852,12.8227246 145.600833,11.2611541 148.643664,13.2956573 L149.97323,8.17370613 C149.97323,8.17370613 148.563355,6.63890541 145.814991,6.90660321 L145.814991,6.90660321 L145.814991,6.90660321 Z" id="Shape" fill="#EF4123" sketch:type="MSShapeGroup"></path>
            <path d="M111.43367,0.0267697799 L111.43367,7.24568709 C111.43367,7.24568709 110.755503,6.87983343 109.40809,6.87983343 C104.687686,6.87983343 100.859607,10.6454491 100.859607,16.2760262 C100.859607,21.7727543 103.545509,24.6817371 106.882808,24.6817371 C110.862582,24.6817371 111.522903,22.6115407 111.522903,22.6115407 L111.763831,24.405116 L117.501487,24.405116 L117.501487,0.0267697799 L111.43367,0.0267697799 L111.43367,0.0267697799 Z M111.442594,17.3378941 C111.442594,18.7834622 110.612731,20.0237954 109.301011,20.0237954 C107.801904,20.0237954 106.677573,18.8013087 106.677573,15.2587745 C106.677573,12.2605592 108.087448,10.6365259 109.613325,10.5562165 C111.04997,10.4759072 111.442594,11.0113028 111.442594,11.0113028 L111.442594,17.3378941 L111.442594,17.3378941 Z" id="Shape" fill="#EF4123" sketch:type="MSShapeGroup"></path>
            <path d="M59.5627603,10.3152885 L58.0011898,9.70850684 C55.4937537,8.70017847 54.8958953,7.69185009 54.8958953,6.52290303 C54.886972,5.45211184 55.8863772,4.55086258 57.7870315,4.55086258 C59.6966092,4.55086258 61.4723379,4.95240928 62.8197501,5.52349792 L64.1493159,1.54372397 C61.6329566,0.588935158 60.3837002,0 57.4568709,0 C52.1118382,0 48.4354551,3.49791791 48.3372992,7.47769185 C48.2837597,9.56573468 48.9976205,10.9934563 50.2558001,12.1534801 C52.1653778,13.9202855 54.9315883,14.8483046 54.9315883,14.8483046 C57.56395,15.9190958 58.1261154,16.9631172 58.1350387,18.0696014 C58.1439619,19.3099346 57.2070196,20.2201071 55.0475907,20.2201071 C53.2361689,20.2201071 50.6038073,19.7828673 48.9440809,19.0422368 L47.7215943,23.3700178 C49.6579417,24.2712671 52.415229,24.7709697 55.53837,24.7709697 C60.7852469,24.7709697 64.7739441,21.728138 64.7471743,17.2040452 C64.738251,14.107674 63.0696014,11.7251636 59.5627603,10.3152885 L59.5627603,10.3152885 L59.5627603,10.3152885 Z" id="Shape" fill="#EF4123" sketch:type="MSShapeGroup"></path>
            <path d="M41.9839381,5.92504462 C43.8578227,5.92504462 44.9018441,4.57763236 44.9018441,2.95359905 C44.9018441,1.35633551 43.8488995,0.00892325997 41.9839381,0.00892325997 C40.0386675,0.00892325997 38.9857228,1.35633551 38.9857228,2.95359905 C38.9857228,4.57763236 40.0386675,5.92504462 41.9839381,5.92504462 L41.9839381,5.92504462 L41.9839381,5.92504462 Z" id="Shape" fill="#EB9D31" sketch:type="MSShapeGroup"></path>
            <path d="M39.0124926,24.405116 L44.8750744,24.405116 L44.8750744,7.28138013 L39.0124926,7.28138013 L39.0124926,24.405116 L39.0124926,24.405116 Z" id="Shape" fill="#EB9D31" sketch:type="MSShapeGroup"></path>
            <path d="M14.1255205,12.7424152 C14.1255205,18.5425342 12.8851874,19.7917906 10.3509816,19.7917906 C7.29030339,19.7917906 5.91612136,18.1766805 5.91612136,12.6085663 C5.91612136,6.42474717 5.93396788,0 5.93396788,0 L0.0624628198,0 L0.0624628198,15.8744795 C0.0624628198,21.8709102 3.23022011,24.7709697 9.63712076,24.7709697 C15.8834027,24.7709697 20.0059488,21.8352171 20.0059488,15.8387864 L20.0059488,0.00892325996 L14.1255205,0.00892325996 C14.1165973,0.0178465199 14.1255205,4.54193932 14.1255205,12.7424152 L14.1255205,12.7424152 L14.1255205,12.7424152 Z" id="Shape" fill="#EB9D31" sketch:type="MSShapeGroup"></path>
        </g>
    </g>
</svg>