<?xml version="1.0" encoding="UTF-8" standalone="no"?>
<svg width="10px" height="14px" viewBox="0 0 10 14" version="1.1" xmlns="http://www.w3.org/2000/svg" xmlns:xlink="http://www.w3.org/1999/xlink" xmlns:sketch="http://www.bohemiancoding.com/sketch/ns">
    <!-- Generator: Sketch 3.4.3 (16618) - http://www.bohemiancoding.com/sketch -->
    <title>Untitled</title>
    <desc>Created with Sketch.</desc>
    <defs></defs>
    <g id="Page-1" stroke="none" stroke-width="1" fill="none" fill-rule="evenodd" sketch:type="MSPage">
        <path d="M8.33308643,5.8331605 L8.33308643,3.33323457 C8.33308643,1.49654825 6.8383159,0 5.00014814,0 C3.16257296,0 1.66691357,1.49654825 1.66691357,3.33323457 L1.66691357,5.8331605 C0.7464964,5.8331605 -2.93098879e-14,6.57936061 -2.93098879e-14,7.49977778 L-2.93098879e-14,11.666321 C-2.93098879e-14,12.5867382 0.7464964,13.3329383 1.66691357,13.3329383 L8.33308643,13.3329383 C9.2535036,13.3329383 10,12.5867382 10,11.666321 L10,7.49977778 C10,6.57936061 9.2535036,5.8331605 8.33308643,5.8331605 L8.33308643,5.8331605 Z M5.41658025,9.87185565 L5.41658025,11.2497407 C5.41658025,11.4809932 5.23051169,11.666321 5.00014814,11.666321 C4.76948831,11.666321 4.58356789,11.480845 4.58356789,11.2497407 L4.58356789,9.87185565 C4.33942698,9.7271192 4.16669136,9.47171936 4.16669136,9.16639507 C4.16669136,8.70655684 4.54045806,8.33308643 5.00029629,8.33308643 C5.45983823,8.33308643 5.83360493,8.70655684 5.83360493,9.16639507 C5.83345679,9.47171936 5.66161003,9.72800806 5.41658025,9.87185565 L5.41658025,9.87185565 Z M6.66676543,5.8331605 L3.33323457,5.8331605 L3.33323457,3.33323457 C3.33323457,2.41370626 4.08121241,1.66661729 5.00014814,1.66661729 C5.91878759,1.66661729 6.66676543,2.41370626 6.66676543,3.33323457 L6.66676543,5.8331605 L6.66676543,5.8331605 Z" id="Shape-Copy" fill="#D9D9D9" sketch:type="MSShapeGroup"></path>
    </g>
</svg>