<?xml version="1.0" encoding="UTF-8" standalone="no"?>
<svg width="38px" height="47px" viewBox="0 0 38 47" version="1.1" xmlns="http://www.w3.org/2000/svg" xmlns:xlink="http://www.w3.org/1999/xlink" xmlns:sketch="http://www.bohemiancoding.com/sketch/ns">
    <!-- Generator: Sketch 3.5.1 (25234) - http://www.bohemiancoding.com/sketch -->
    <title>Untitled</title>
    <desc>Created with Sketch.</desc>
    <defs></defs>
    <g id="Page-1" stroke="none" stroke-width="1" fill="none" fill-rule="evenodd" sketch:type="MSPage">
        <g id="drag-drop-file-icon" sketch:type="MSLayerGroup">
            <g id="noun_116616_cc-copy-3" transform="translate(8.000000, 8.000000)" sketch:type="MSShapeGroup">
                <path d="M0.498481964,1.97809546 L0.637043636,37.603047 L27.1893124,37.603047 L27.7578502,10.499949 L17.6571392,1.58353644 L0.498481964,1.97809546 Z" id="Path-3412" fill="#FFFFFF"></path>
                <g id="Group" fill="#BABABA" opacity="0.2">
                    <path d="M18.7068491,0.590917241 C18.6851497,0.596818023 18.6637599,0.603774816 18.6427582,0.611762069 L18.5786673,0.611762069 L2.89684909,0.611762069 C1.38941727,0.611762069 0.148303636,1.83582414 0.148303636,3.32246379 L0.148303636,35.8715276 C0.148303636,37.3589741 1.38941727,38.5821621 2.89684909,38.5821621 L26.6113036,38.5821621 C28.1188036,38.5821621 29.3599173,37.3589741 29.3599173,35.8715276 L29.3599173,10.7400621 C29.3603684,10.7259449 29.3603684,10.7118172 29.3599173,10.6977 C29.3600265,10.6907521 29.3600265,10.683803 29.3599173,10.6768552 C29.3569458,10.6342629 29.3498684,10.5920465 29.3387809,10.5507776 C29.3388901,10.5438297 29.3388901,10.5368806 29.3387809,10.5299328 C29.3392178,10.5160395 29.3392178,10.5021363 29.3387809,10.4882431 C29.3318907,10.4811434 29.3248436,10.4741934 29.3176445,10.4673983 C29.3177537,10.4604504 29.3177537,10.4535013 29.3176445,10.4465534 C29.3110897,10.4324202 29.30404,10.4185153 29.2965082,10.4048638 C29.2899677,10.3905035 29.2829179,10.3763741 29.2753718,10.3625017 C29.2683268,10.362394 29.2612805,10.362394 29.2542355,10.3625017 C29.2476806,10.3483685 29.2406309,10.3344636 29.2330991,10.3208121 C29.2262089,10.3137123 29.2191618,10.3067624 29.2119627,10.2999672 C29.2054079,10.285834 29.1983582,10.2719291 29.1908264,10.2582776 C29.1839362,10.2511778 29.176889,10.2442279 29.16969,10.2374328 C29.1627998,10.230333 29.1557527,10.2233831 29.1485536,10.2165879 L19.1982355,0.802794828 C19.1847693,0.788295493 19.1706648,0.774385576 19.1559627,0.761105172 C19.13541,0.746032586 19.1140124,0.732113977 19.0918718,0.719415517 C19.0148333,0.667499817 18.9278108,0.631729111 18.83619,0.614317241 C18.8007443,0.611579026 18.7651357,0.611579026 18.72969,0.614317241 C18.7227998,0.607217489 18.7157527,0.600267544 18.7085536,0.593472414 L18.7068491,0.590917241 Z M2.89719,1.95672414 L18.0463718,1.95672414 L18.0463718,8.65988276 C18.0463718,10.1469931 19.2877582,11.3705172 20.7949173,11.3705172 L27.9966218,11.3705172 L27.9966218,35.8716621 C27.9966218,36.6325655 27.3815536,37.237469 26.6116445,37.237469 L2.89719,37.237469 C2.12741727,37.237469 1.51228091,36.6325655 1.51228091,35.8716621 L1.51228091,3.32259828 C1.51228091,2.56337586 2.12741727,1.95672414 2.89719,1.95672414 L2.89719,1.95672414 Z M19.4100082,2.86031379 L26.4838718,9.54242586 L26.9952355,10.0256897 L20.7949173,10.0256897 C20.0248036,10.0256897 19.4100082,9.41997931 19.4100082,8.65988276 L19.4100082,2.86031379 L19.4100082,2.86031379 Z" id="Shape"></path>
                </g>
            </g>
            <g id="noun_116616_cc-copy-2" transform="translate(4.000000, 4.000000)" sketch:type="MSShapeGroup">
                <path d="M1.49848196,1.97809546 L1.63704364,37.603047 L28.1893124,37.603047 L28.7578502,10.499949 L18.6571392,1.58353644 L1.49848196,1.97809546 Z" id="Path-3412" fill="#FFFFFF"></path>
                <g id="Group" fill-opacity="0.5" fill="#BABABA">
                    <path d="M18.7068491,0.590917241 C18.6851497,0.596818023 18.6637599,0.603774816 18.6427582,0.611762069 L18.5786673,0.611762069 L2.89684909,0.611762069 C1.38941727,0.611762069 0.148303636,1.83582414 0.148303636,3.32246379 L0.148303636,35.8715276 C0.148303636,37.3589741 1.38941727,38.5821621 2.89684909,38.5821621 L26.6113036,38.5821621 C28.1188036,38.5821621 29.3599173,37.3589741 29.3599173,35.8715276 L29.3599173,10.7400621 C29.3603684,10.7259449 29.3603684,10.7118172 29.3599173,10.6977 C29.3600265,10.6907521 29.3600265,10.683803 29.3599173,10.6768552 C29.3569458,10.6342629 29.3498684,10.5920465 29.3387809,10.5507776 C29.3388901,10.5438297 29.3388901,10.5368806 29.3387809,10.5299328 C29.3392178,10.5160395 29.3392178,10.5021363 29.3387809,10.4882431 C29.3318907,10.4811434 29.3248436,10.4741934 29.3176445,10.4673983 C29.3177537,10.4604504 29.3177537,10.4535013 29.3176445,10.4465534 C29.3110897,10.4324202 29.30404,10.4185153 29.2965082,10.4048638 C29.2899677,10.3905035 29.2829179,10.3763741 29.2753718,10.3625017 C29.2683268,10.362394 29.2612805,10.362394 29.2542355,10.3625017 C29.2476806,10.3483685 29.2406309,10.3344636 29.2330991,10.3208121 C29.2262089,10.3137123 29.2191618,10.3067624 29.2119627,10.2999672 C29.2054079,10.285834 29.1983582,10.2719291 29.1908264,10.2582776 C29.1839362,10.2511778 29.176889,10.2442279 29.16969,10.2374328 C29.1627998,10.230333 29.1557527,10.2233831 29.1485536,10.2165879 L19.1982355,0.802794828 C19.1847693,0.788295493 19.1706648,0.774385576 19.1559627,0.761105172 C19.13541,0.746032586 19.1140124,0.732113977 19.0918718,0.719415517 C19.0148333,0.667499817 18.9278108,0.631729111 18.83619,0.614317241 C18.8007443,0.611579026 18.7651357,0.611579026 18.72969,0.614317241 C18.7227998,0.607217489 18.7157527,0.600267544 18.7085536,0.593472414 L18.7068491,0.590917241 Z M2.89719,1.95672414 L18.0463718,1.95672414 L18.0463718,8.65988276 C18.0463718,10.1469931 19.2877582,11.3705172 20.7949173,11.3705172 L27.9966218,11.3705172 L27.9966218,35.8716621 C27.9966218,36.6325655 27.3815536,37.237469 26.6116445,37.237469 L2.89719,37.237469 C2.12741727,37.237469 1.51228091,36.6325655 1.51228091,35.8716621 L1.51228091,3.32259828 C1.51228091,2.56337586 2.12741727,1.95672414 2.89719,1.95672414 L2.89719,1.95672414 Z M19.4100082,2.86031379 L26.4838718,9.54242586 L26.9952355,10.0256897 L20.7949173,10.0256897 C20.0248036,10.0256897 19.4100082,9.41997931 19.4100082,8.65988276 L19.4100082,2.86031379 L19.4100082,2.86031379 Z" id="Shape"></path>
                </g>
            </g>
            <g id="noun_116616_cc" sketch:type="MSShapeGroup">
                <path d="M1.49848196,1.97809546 L1.63704364,37.603047 L28.1893124,37.603047 L28.7578502,10.499949 L18.6571392,1.58353644 L1.49848196,1.97809546 Z" id="Path-3412" fill="#FFFFFF"></path>
                <g id="Group" fill="#BABABA">
                    <path d="M18.7068491,0.590917241 C18.6851497,0.596818023 18.6637599,0.603774816 18.6427582,0.611762069 L18.5786673,0.611762069 L2.89684909,0.611762069 C1.38941727,0.611762069 0.148303636,1.83582414 0.148303636,3.32246379 L0.148303636,35.8715276 C0.148303636,37.3589741 1.38941727,38.5821621 2.89684909,38.5821621 L26.6113036,38.5821621 C28.1188036,38.5821621 29.3599173,37.3589741 29.3599173,35.8715276 L29.3599173,10.7400621 C29.3603684,10.7259449 29.3603684,10.7118172 29.3599173,10.6977 C29.3600265,10.6907521 29.3600265,10.683803 29.3599173,10.6768552 C29.3569458,10.6342629 29.3498684,10.5920465 29.3387809,10.5507776 C29.3388901,10.5438297 29.3388901,10.5368806 29.3387809,10.5299328 C29.3392178,10.5160395 29.3392178,10.5021363 29.3387809,10.4882431 C29.3318907,10.4811434 29.3248436,10.4741934 29.3176445,10.4673983 C29.3177537,10.4604504 29.3177537,10.4535013 29.3176445,10.4465534 C29.3110897,10.4324202 29.30404,10.4185153 29.2965082,10.4048638 C29.2899677,10.3905035 29.2829179,10.3763741 29.2753718,10.3625017 C29.2683268,10.362394 29.2612805,10.362394 29.2542355,10.3625017 C29.2476806,10.3483685 29.2406309,10.3344636 29.2330991,10.3208121 C29.2262089,10.3137123 29.2191618,10.3067624 29.2119627,10.2999672 C29.2054079,10.285834 29.1983582,10.2719291 29.1908264,10.2582776 C29.1839362,10.2511778 29.176889,10.2442279 29.16969,10.2374328 C29.1627998,10.230333 29.1557527,10.2233831 29.1485536,10.2165879 L19.1982355,0.802794828 C19.1847693,0.788295493 19.1706648,0.774385576 19.1559627,0.761105172 C19.13541,0.746032586 19.1140124,0.732113977 19.0918718,0.719415517 C19.0148333,0.667499817 18.9278108,0.631729111 18.83619,0.614317241 C18.8007443,0.611579026 18.7651357,0.611579026 18.72969,0.614317241 C18.7227998,0.607217489 18.7157527,0.600267544 18.7085536,0.593472414 L18.7068491,0.590917241 Z M2.89719,1.95672414 L18.0463718,1.95672414 L18.0463718,8.65988276 C18.0463718,10.1469931 19.2877582,11.3705172 20.7949173,11.3705172 L27.9966218,11.3705172 L27.9966218,35.8716621 C27.9966218,36.6325655 27.3815536,37.237469 26.6116445,37.237469 L2.89719,37.237469 C2.12741727,37.237469 1.51228091,36.6325655 1.51228091,35.8716621 L1.51228091,3.32259828 C1.51228091,2.56337586 2.12741727,1.95672414 2.89719,1.95672414 L2.89719,1.95672414 Z M19.4100082,2.86031379 L26.4838718,9.54242586 L26.9952355,10.0256897 L20.7949173,10.0256897 C20.0248036,10.0256897 19.4100082,9.41997931 19.4100082,8.65988276 L19.4100082,2.86031379 L19.4100082,2.86031379 Z" id="Shape"></path>
                </g>
            </g>
            <g id="noun_339262_cc" transform="translate(17.000000, 27.000000)" sketch:type="MSShapeGroup">
                <g id="Group">
                    <path d="M1.87074531,10.3459847 L3.89704895,16.2641696 L8.48202399,18.6794423 L12.007641,18.6039588 L15.4954166,15.9978861 L16.3263325,12.3081573 L16.0958988,2.43376095 L13.7788144,1.82949466 L11.9397257,1.23658077 L10.23826,1.43853397 L7.01278457,1.5518588 L6.30654585,2.28458645 L4.85821873,4.07468052 L4.93370223,9.46408258 L4.8203774,11.6302 L3.24558058,9.17330183 L1.87074531,10.3459847 Z" id="Path-3425" fill="#FFFFFF"></path>
                    <path d="M15.9156061,12.5930958 C15.9156061,15.8740651 13.2826597,18.5440953 10.0472594,18.5440953 L9.93062271,18.5440953 C6.97717893,18.5440953 4.35336057,16.7503616 3.24480492,13.9764512 L1.99831371,10.8579875 C1.91413244,10.6183431 1.92731746,10.3601853 2.03482606,10.1297975 C2.14334889,9.89940966 2.33301029,9.7266188 2.59772486,9.63096671 C2.70117653,9.5939401 2.80665666,9.5754268 2.91112257,9.5754268 C3.29754498,9.5754268 3.66064007,9.82021385 3.79756139,10.2110503 L4.25092313,11.5038962 C4.33307593,11.7404551 4.569392,11.883419 4.81483616,11.8391928 C5.05723762,11.7959951 5.23574247,11.5820635 5.23574247,11.3321339 L5.23574247,3.15233796 C5.23574247,2.62676576 5.65766301,2.1999312 6.20534832,2.1999312 C6.72362091,2.1999312 7.14554145,2.62676576 7.14554145,3.15233796 L7.14554145,8.40908849 C7.14554145,8.69295919 7.3717152,8.923347 7.65265748,8.923347 C7.93258553,8.923347 8.15977352,8.69295919 8.15977352,8.40908849 L8.15977352,2.28426959 C8.15977352,1.75766888 8.58067983,1.33083431 9.12836514,1.33083431 C9.64663773,1.33083431 10.0685583,1.75766888 10.0685583,2.28426959 L10.0685583,8.40908849 C10.0685583,8.69295919 10.294732,8.923347 10.5756743,8.923347 C10.8556024,8.923347 11.0827903,8.69295919 11.0827903,8.40908849 L11.0827903,2.28426959 C11.0827903,1.75766888 11.5036966,1.33083431 12.051382,1.33083431 C12.5706688,1.33083431 12.9925893,1.75766888 12.9925893,2.28426959 L12.9925893,8.40908849 C12.9925893,8.69295919 13.2187631,8.923347 13.4997054,8.923347 C13.7796334,8.923347 14.0068214,8.69295919 14.0068214,8.40908849 L14.0068214,3.15233796 C14.0068214,2.62676576 14.4277277,2.1999312 14.975413,2.1999312 C15.4936856,2.1999312 15.9156061,2.62676576 15.9156061,3.15233796 L15.9156061,12.5930958 L15.9156061,12.5930958 Z M14.9460003,1.17141417 C14.5413217,1.17141417 14.1640274,1.29689325 13.8516439,1.51185331 C13.5524454,0.802176559 12.8516111,0.302317284 12.0229835,0.302317284 C11.4489281,0.302317284 10.9316698,0.554303956 10.5736458,0.955425596 C10.2125792,0.554303956 9.68822124,0.302317284 9.09895241,0.302317284 C8.28959522,0.302317284 7.59484626,0.803205076 7.29767626,1.51493886 C6.98022162,1.29792177 6.59481344,1.17141417 6.17593559,1.17141417 C5.09780691,1.17141417 4.2215104,2.06005288 4.2215104,3.15233796 L4.2215104,9.06013977 C3.70323781,8.58907897 2.94966339,8.41423107 2.22955862,8.67136033 C1.73765606,8.84929377 1.34311979,9.20927473 1.1189745,9.68753515 C0.894829216,10.1657956 0.86744495,10.70371 1.05000672,11.2241396 L2.30461179,14.3631736 C3.56935918,17.5268919 6.56235801,19.5726123 9.93062271,19.5726123 L10.0472594,19.5726123 C13.8425158,19.5726123 16.9298382,16.4418065 16.9298382,12.5930958 L16.9298382,3.15233796 C16.9298382,2.06005288 16.0535417,1.17141417 14.9460003,1.17141417 L14.9460003,1.17141417 L14.9460003,1.17141417 Z" id="Shape" stroke="#BABABA" stroke-width="0.3" fill="#BABABA"></path>
                </g>
            </g>
            <g id="noun_162491_cc" transform="translate(7.000000, 12.000000)" fill="#BABABA" sketch:type="MSShapeGroup">
                <path d="M15.4747195,14.7147925 C15.4829286,13.8931681 15.2835901,12.6464547 14.0536519,12.3432532 C12.1792988,11.8815802 10.6243871,11.1777386 10.6243871,11.1777386 C10.4300454,10.9182594 10.3367115,10.4790723 10.2942383,10.1915751 C10.7175426,9.61997147 10.9322286,8.94914475 11.0373408,8.35148614 C11.216335,8.47462273 11.5138259,8.41019909 11.8407624,7.24129378 C12.1064876,6.29135745 11.9448039,5.97298691 11.7153059,5.89268043 L11.7153059,5.89268043 C12.4616207,2.27799691 10.7566251,2.15682337 10.7566251,2.15682337 C10.7566251,2.15682337 10.4994659,1.65642482 9.82185774,1.27827057 C9.36785849,1.00629932 8.73611425,0.79500407 7.90199769,0.868172188 C7.63198949,0.881021224 7.37679337,0.933845036 7.13748008,1.01575764 L7.13748008,1.01575764 L7.13712316,1.0159361 C6.83070936,1.12086989 6.54981517,1.27345218 6.29622518,1.45173255 C5.98427915,1.65160643 5.690179,1.89609503 5.43069987,2.17538309 C5.01970919,2.60011509 4.65369014,3.14905444 4.49486179,3.83451479 C4.34388562,4.41664748 4.34852555,5.04607176 4.57374059,5.6856682 C4.26732678,5.65657941 3.90541229,5.8364659 4.24609018,7.05426893 C4.49504025,7.9442431 4.72685826,8.19390699 4.90228329,8.2081837 C5.0006141,8.85188469 5.2220815,9.60141175 5.69874503,10.2261961 C5.65859179,10.4854968 5.57864224,10.8488389 5.42588148,11.1008228 C5.41463858,11.106355 3.81243524,11.8833648 1.94468516,12.3436101 C0.711891595,12.6469901 0.514694592,13.8990572 0.523974451,14.7208601 C0.523439075,14.8290061 0.526472875,14.9309061 0.531826639,15.0233478 L0.530577428,15.0229909 C0.530577428,15.0229909 0.530042051,15.0624303 0.53022051,15.1291739 C0.529863592,15.1903853 0.530042051,15.3402907 0.537180404,15.5264232 C2.78736774,16.5639828 5.31488009,17.1464725 7.98623026,17.1464725 C10.6657895,17.1464725 13.2004402,16.5604137 15.4558029,15.5169649 C15.4624059,15.3367215 15.4625843,15.1916345 15.4622274,15.1306016 L15.4622274,15.0940175 C15.4704365,14.9817669 15.4756118,14.8532765 15.4747195,14.7147925 L15.4747195,14.7147925 Z" id="Shape"></path>
            </g>
        </g>
    </g>
</svg>